<?xml version="1.0" standalone="no"?>
<!DOCTYPE svg PUBLIC "-//W3C//DTD SVG 20010904//EN"
 "http://www.w3.org/TR/2001/REC-SVG-20010904/DTD/svg10.dtd">
<svg version="1.0" xmlns="http://www.w3.org/2000/svg"
 width="951.000000pt" height="701.000000pt" viewBox="0 0 951.000000 701.000000"
 preserveAspectRatio="xMidYMid meet">

<g transform="translate(0.000000,701.000000) scale(0.100000,-0.100000)"
fill="#000000" stroke="none">
<path d="M550 6885 c0 -33 2 -35 35 -35 33 0 35 2 35 35 0 33 -2 35 -35 35
-33 0 -35 -2 -35 -35z"/>
<path d="M1377 6908 c-15 -11 -18 -25 -15 -77 4 -89 25 -92 24 -4 l-1 68 68
-1 c44 0 66 3 64 10 -5 17 -119 19 -140 4z"/>
<path d="M4612 6908 c-16 -16 -16 -120 0 -136 7 -7 37 -12 68 -12 31 0 61 5
68 12 7 7 12 37 12 68 0 31 -5 61 -12 68 -7 7 -37 12 -68 12 -31 0 -61 -5 -68
-12z m68 -23 c0 -10 10 -15 30 -15 20 0 30 -5 30 -15 0 -10 -10 -15 -30 -15
-27 0 -30 -3 -30 -30 0 -20 -5 -30 -15 -30 -10 0 -15 10 -15 30 0 20 -5 30
-15 30 -8 0 -15 7 -15 15 0 8 7 15 15 15 8 0 15 7 15 15 0 8 7 15 15 15 8 0
15 -7 15 -15z"/>
<path d="M2212 6892 c-35 -17 -52 -56 -33 -75 8 -8 11 -3 11 20 0 30 3 32 45
39 37 5 43 9 34 20 -13 16 -14 16 -57 -4z"/>
<path d="M3022 6892 c-35 -17 -52 -56 -33 -75 8 -8 11 -3 11 20 0 30 3 32 45
39 37 5 43 9 34 20 -13 16 -14 16 -57 -4z"/>
<path d="M5452 6898 c-8 -8 -9 -15 -1 -25 8 -9 8 -17 0 -27 -9 -10 -8 -16 3
-26 23 -19 36 -3 36 46 0 45 -13 57 -38 32z"/>
<path d="M7072 6892 c-35 -17 -52 -56 -33 -75 8 -8 11 -3 11 20 0 30 3 32 45
39 37 5 43 9 34 20 -13 16 -14 16 -57 -4z"/>
<path d="M7882 6892 c-35 -17 -52 -56 -33 -75 8 -8 11 -3 11 20 0 30 3 32 45
39 37 5 43 9 34 20 -13 16 -14 16 -57 -4z"/>
<path d="M8710 6884 c0 -8 5 -12 10 -9 6 3 10 10 10 16 0 5 -4 9 -10 9 -5 0
-10 -7 -10 -16z"/>
<path d="M800 6845 c0 -27 2 -46 4 -44 8 8 10 78 3 85 -4 4 -7 -14 -7 -41z"/>
<path d="M1620 6875 c-7 -9 -10 -18 -6 -22 3 -3 6 -1 6 6 0 6 10 16 23 21 15
6 17 9 6 9 -9 1 -22 -6 -29 -14z"/>
<path d="M2303 6883 c-8 -2 -13 -22 -13 -45 l0 -40 -45 4 c-25 2 -45 0 -45 -3
0 -10 26 -29 32 -24 3 3 17 1 30 -4 43 -16 68 10 68 70 0 48 -3 52 -27 42z"/>
<path d="M2421 6843 c1 -26 3 -41 6 -32 2 10 13 19 24 22 29 8 22 51 -8 55
-21 3 -23 0 -22 -45z m39 17 c0 -11 -7 -20 -15 -20 -8 0 -15 9 -15 20 0 11 7
20 15 20 8 0 15 -9 15 -20z"/>
<path d="M3113 6883 c-8 -2 -13 -22 -13 -45 l0 -40 -45 4 c-25 2 -45 0 -45 -3
0 -10 26 -29 32 -24 3 3 17 1 30 -4 43 -16 68 10 68 70 0 48 -3 52 -27 42z"/>
<path d="M3231 6843 c1 -26 4 -38 6 -25 2 12 8 22 12 22 5 0 16 -10 25 -22 9
-13 14 -16 9 -8 -4 8 -7 28 -8 45 0 23 -5 31 -22 33 -21 3 -23 0 -22 -45z m39
22 c0 -8 -7 -15 -15 -15 -8 0 -15 7 -15 15 0 8 7 15 15 15 8 0 15 -7 15 -15z"/>
<path d="M3363 6845 c0 -27 2 -38 4 -22 2 15 2 37 0 50 -2 12 -4 0 -4 -28z"/>
<path d="M4050 6875 c-7 -9 -10 -18 -6 -22 3 -3 6 -1 6 6 0 6 10 16 23 21 15
6 17 9 6 9 -9 1 -22 -6 -29 -14z"/>
<path d="M4851 6843 c1 -26 4 -38 6 -25 2 12 8 22 12 22 5 0 16 -10 25 -22 9
-13 14 -16 9 -8 -4 8 -7 28 -8 45 0 23 -5 31 -22 33 -21 3 -23 0 -22 -45z m39
22 c0 -8 -7 -15 -15 -15 -8 0 -15 7 -15 15 0 8 7 15 15 15 8 0 15 -7 15 -15z"/>
<path d="M5663 6845 c0 -27 2 -38 4 -22 2 15 2 37 0 50 -2 12 -4 0 -4 -28z"/>
<path d="M6232 6873 c2 -9 18 -25 37 -35 31 -18 34 -18 52 -2 27 24 24 34 -9
28 -19 -4 -32 -1 -41 10 -18 21 -43 21 -39 -1z"/>
<path d="M6473 6873 c-4 -11 1 -22 15 -31 28 -19 28 -32 0 -33 -19 -1 -20 -2
-4 -6 10 -3 23 0 30 7 8 9 5 16 -11 30 -27 22 -29 37 -5 43 16 4 16 5 -1 6
-10 0 -21 -7 -24 -16z"/>
<path d="M6540 6845 c0 -27 2 -46 5 -44 7 8 9 78 2 85 -4 4 -7 -14 -7 -41z"/>
<path d="M6608 6878 c-2 -7 -1 -29 3 -48 6 -32 7 -31 6 13 0 49 -2 56 -9 35z"/>
<path d="M6658 6883 c6 -2 18 -2 25 0 6 3 1 5 -13 5 -14 0 -19 -2 -12 -5z"/>
<path d="M7163 6883 c-8 -2 -13 -22 -13 -45 l0 -40 -45 4 c-25 2 -45 0 -45 -3
0 -10 26 -29 32 -24 3 3 17 1 30 -4 43 -16 68 10 68 70 0 48 -3 52 -27 42z"/>
<path d="M7283 6845 c0 -27 2 -38 4 -22 2 15 2 37 0 50 -2 12 -4 0 -4 -28z"/>
<path d="M7973 6883 c-8 -2 -13 -22 -13 -45 l0 -40 -45 4 c-25 2 -45 0 -45 -3
0 -10 26 -29 32 -24 3 3 17 1 30 -4 43 -16 68 10 68 70 0 48 -3 52 -27 42z"/>
<path d="M8373 6845 c0 -27 2 -38 4 -22 2 15 2 37 0 50 -2 12 -4 0 -4 -28z"/>
<path d="M8890 6843 c0 -25 2 -44 4 -42 8 10 13 89 5 89 -5 0 -9 -21 -9 -47z"/>
<path d="M9090 6845 c0 -32 4 -45 14 -45 23 0 46 11 46 23 0 7 -4 7 -12 -1
-23 -23 -38 -13 -38 24 0 33 2 36 25 32 13 -3 22 -1 19 3 -3 5 -16 9 -30 9
-22 0 -24 -4 -24 -45z"/>
<path d="M236 6858 c1 -13 3 -26 3 -30 1 -5 19 -8 41 -8 38 0 40 2 40 30 0 29
-2 30 -43 30 -39 0 -43 -2 -41 -22z"/>
<path d="M1104 6863 c19 -23 19 -23 0 -45 l-19 -23 23 19 c22 19 22 19 45 0
l22 -19 -19 23 c-19 22 -19 22 0 45 l19 22 -22 -19 c-23 -19 -23 -19 -45 0
l-23 19 19 -22z"/>
<path d="M5898 6869 c-6 -17 3 -69 11 -69 7 0 6 69 -2 76 -3 3 -7 0 -9 -7z"/>
<path d="M912 6830 c0 -19 2 -27 5 -17 2 9 2 25 0 35 -3 9 -5 1 -5 -18z"/>
<path d="M1704 6852 c19 -8 19 -9 -3 -15 -28 -7 -23 -31 8 -35 19 -3 22 0 19
25 -2 19 -9 29 -23 30 -19 3 -19 3 -1 -5z m16 -32 c0 -5 -7 -10 -15 -10 -8 0
-15 5 -15 10 0 6 7 10 15 10 8 0 15 -4 15 -10z"/>
<path d="M1756 6851 c-3 -5 3 -7 14 -4 16 4 20 0 20 -17 0 -17 -4 -21 -20 -17
-11 3 -20 1 -20 -5 0 -5 10 -8 23 -6 16 2 22 10 22 28 0 25 -27 40 -39 21z"/>
<path d="M2493 6836 c1 -17 9 -31 17 -33 10 -3 11 -2 4 4 -7 4 -14 19 -17 33
-4 22 -5 21 -4 -4z"/>
<path d="M2532 6830 c0 -19 2 -27 5 -17 2 9 2 25 0 35 -3 9 -5 1 -5 -18z"/>
<path d="M2655 6850 c-3 -6 1 -7 9 -4 18 7 21 14 7 14 -6 0 -13 -4 -16 -10z"/>
<path d="M2697 6853 c-14 -13 -7 -23 16 -22 19 1 19 2 3 6 -15 4 -16 7 -5 14
8 5 9 9 3 9 -6 0 -14 -3 -17 -7z"/>
<path d="M3307 6853 c-14 -14 -6 -23 21 -22 27 2 27 2 2 7 -23 4 -24 5 -5 13
14 5 16 8 4 8 -9 1 -19 -2 -22 -6z"/>
<path d="M3394 6846 c-9 -23 3 -46 23 -45 17 1 17 2 1 6 -25 6 -22 23 3 23 12
0 19 5 17 13 -7 18 -37 21 -44 3z m33 -2 c-3 -3 -12 -4 -19 -1 -8 3 -5 6 6 6
11 1 17 -2 13 -5z"/>
<path d="M3468 6853 c7 -3 16 -2 19 1 4 3 -2 6 -13 5 -11 0 -14 -3 -6 -6z"/>
<path d="M3516 6851 c-3 -5 2 -15 12 -22 15 -13 16 -12 4 3 -10 13 -10 17 0
21 9 4 9 6 1 6 -6 1 -14 -3 -17 -8z"/>
<path d="M4134 6852 c19 -8 19 -9 -3 -15 -28 -7 -23 -31 8 -35 19 -3 22 0 19
25 -2 19 -9 29 -23 30 -19 3 -19 3 -1 -5z m16 -32 c0 -5 -7 -10 -15 -10 -8 0
-15 5 -15 10 0 6 7 10 15 10 8 0 15 -4 15 -10z"/>
<path d="M4186 6851 c-3 -5 3 -7 14 -4 16 4 20 0 20 -17 0 -17 -4 -21 -20 -17
-11 3 -20 1 -20 -5 0 -5 10 -8 23 -6 16 2 22 10 22 28 0 25 -27 40 -39 21z"/>
<path d="M4927 6853 c-14 -14 -6 -23 21 -22 27 2 27 2 2 7 -23 4 -24 5 -5 13
14 5 16 8 4 8 -9 1 -19 -2 -22 -6z"/>
<path d="M4986 6851 c-4 -5 3 -7 14 -4 16 4 20 0 20 -17 0 -17 -4 -21 -20 -17
-11 3 -18 1 -14 -4 3 -5 11 -9 19 -9 7 0 16 -8 18 -17 3 -10 5 3 6 30 1 40 -2
47 -18 47 -11 0 -22 -4 -25 -9z"/>
<path d="M5052 6840 c0 -14 2 -19 5 -12 2 6 2 18 0 25 -3 6 -5 1 -5 -13z"/>
<path d="M5090 6836 c0 -15 -7 -26 -17 -29 -14 -4 -12 -5 5 -6 18 -1 22 4 22
29 0 17 -2 30 -5 30 -3 0 -5 -11 -5 -24z"/>
<path d="M5122 6830 c0 -19 2 -27 5 -17 2 9 2 25 0 35 -3 9 -5 1 -5 -18z"/>
<path d="M5694 6845 c-13 -32 23 -63 40 -36 4 5 -3 7 -14 4 -16 -4 -20 0 -20
17 0 17 4 21 20 17 11 -3 18 -1 14 4 -8 14 -34 11 -40 -6z"/>
<path d="M5764 6846 c-10 -25 3 -46 28 -45 l23 2 -22 4 c-29 6 -30 23 -2 23
12 0 19 5 17 13 -7 18 -37 21 -44 3z m33 -2 c-3 -3 -12 -4 -19 -1 -8 3 -5 6 6
6 11 1 17 -2 13 -5z"/>
<path d="M5836 6852 c-2 -4 4 -8 15 -8 10 0 19 4 19 8 0 4 -6 8 -14 8 -8 0
-17 -4 -20 -8z"/>
<path d="M6745 6850 c-3 -6 1 -7 9 -4 18 7 21 14 7 14 -6 0 -13 -4 -16 -10z"/>
<path d="M7314 6849 c-4 -7 1 -16 12 -22 17 -10 17 -11 -1 -18 -16 -6 -17 -8
-3 -8 25 -1 33 20 12 32 -17 10 -17 11 1 18 16 6 17 8 3 8 -9 1 -20 -4 -24
-10z"/>
<path d="M7364 6849 c-4 -7 1 -16 12 -22 17 -10 17 -11 -1 -18 -16 -6 -17 -8
-3 -8 25 -1 33 20 12 32 -17 10 -17 11 1 18 16 6 17 8 3 8 -9 1 -20 -4 -24
-10z"/>
<path d="M7484 6846 c-10 -25 3 -46 28 -45 l23 2 -22 4 c-29 6 -30 23 -2 23
12 0 19 5 17 13 -7 18 -37 21 -44 3z m33 -2 c-3 -3 -12 -4 -19 -1 -8 3 -5 6 6
6 11 1 17 -2 13 -5z"/>
<path d="M8104 6851 c18 -7 18 -8 3 -14 -24 -9 -21 -37 3 -37 11 0 20 4 20 10
0 5 -7 7 -15 4 -8 -4 -15 -1 -15 5 0 6 7 11 15 11 8 0 15 7 15 15 0 9 -9 15
-22 14 -21 0 -21 -1 -4 -8z"/>
<path d="M8151 6810 c1 -25 3 -37 6 -27 2 9 11 17 18 17 8 0 16 4 19 9 4 5 -3
7 -15 4 -17 -5 -20 -2 -17 13 2 10 11 18 21 18 9 -1 14 2 12 6 -3 5 -14 8 -25
7 -17 -1 -20 -8 -19 -47z"/>
<path d="M8302 6830 c0 -19 2 -27 5 -17 2 9 2 25 0 35 -3 9 -5 1 -5 -18z"/>
<path d="M8335 6850 c-3 -6 1 -7 9 -4 18 7 21 14 7 14 -6 0 -13 -4 -16 -10z"/>
<path d="M8972 6830 c0 -19 2 -27 5 -17 2 9 2 25 0 35 -3 9 -5 1 -5 -18z"/>
<path d="M6560 6844 c0 -13 18 -39 24 -34 2 3 -2 14 -10 24 -8 11 -14 16 -14
10z"/>
<path d="M6658 6843 c7 -3 16 -2 19 1 4 3 -2 6 -13 5 -11 0 -14 -3 -6 -6z"/>
<path d="M1610 6834 c0 -17 27 -37 42 -31 8 4 7 6 -4 6 -9 1 -22 9 -27 19 -6
9 -11 12 -11 6z"/>
<path d="M3455 6830 c-8 -13 3 -30 18 -29 9 0 9 2 0 6 -18 7 -16 23 1 23 8 0
17 -8 19 -17 4 -14 5 -12 6 5 1 16 -5 22 -18 22 -11 0 -23 -4 -26 -10z"/>
<path d="M4040 6834 c0 -17 27 -37 42 -31 8 4 7 6 -4 6 -9 1 -22 9 -27 19 -6
9 -11 12 -11 6z"/>
<path d="M8258 6833 c7 -3 16 -2 19 1 4 3 -2 6 -13 5 -11 0 -14 -3 -6 -6z"/>
<path d="M8920 6835 c0 -5 5 -17 10 -25 5 -8 10 -10 10 -5 0 6 -5 17 -10 25
-5 8 -10 11 -10 5z"/>
<path d="M836 6817 c3 -10 9 -15 12 -12 3 3 0 11 -7 18 -10 9 -11 8 -5 -6z"/>
<path d="M1850 6808 c0 -4 6 -8 14 -8 8 0 17 4 20 8 2 4 -4 8 -15 8 -10 0 -19
-4 -19 -8z"/>
<path d="M2698 6808 c5 -5 16 -8 23 -6 8 3 3 7 -10 11 -17 4 -21 3 -13 -5z"/>
<path d="M3308 6808 c5 -5 16 -8 23 -6 8 3 3 7 -10 11 -17 4 -21 3 -13 -5z"/>
<path d="M4280 6808 c0 -4 6 -8 14 -8 8 0 17 4 20 8 2 4 -4 8 -15 8 -10 0 -19
-4 -19 -8z"/>
<path d="M4928 6808 c5 -5 16 -8 23 -6 8 3 3 7 -10 11 -17 4 -21 3 -13 -5z"/>
<path d="M7420 6808 c0 -4 9 -8 20 -8 11 0 20 4 20 8 0 4 -9 8 -20 8 -11 0
-20 -4 -20 -8z"/>
<path d="M8337 6809 c7 -7 15 -10 18 -7 3 3 -2 9 -12 12 -14 6 -15 5 -6 -5z"/>
<path d="M8657 6805 c6 -17 25 -15 31 3 2 7 -5 12 -17 12 -14 0 -19 -5 -14
-15z"/>
<path d="M8750 6806 c0 -24 18 -28 30 -6 9 17 8 20 -10 20 -11 0 -20 -6 -20
-14z"/>
<path d="M9013 6803 c-4 -10 -11 -22 -17 -26 -7 -6 -6 -7 3 -5 13 4 37 48 25
48 -2 0 -8 -8 -11 -17z"/>
<path d="M3518 6803 c7 -3 16 -2 19 1 4 3 -2 6 -13 5 -11 0 -14 -3 -6 -6z"/>
<path d="M6658 6803 c6 -2 18 -2 25 0 6 3 1 5 -13 5 -14 0 -19 -2 -12 -5z"/>
<path d="M1490 6779 c0 -5 5 -7 10 -4 6 3 10 8 10 11 0 2 -4 4 -10 4 -5 0 -10
-5 -10 -11z"/>
<path d="M832 6550 c-52 -21 -51 -97 2 -121 27 -13 76 5 84 31 4 12 1 11 -15
-2 -23 -21 -64 -23 -81 -6 -7 7 -12 24 -12 38 0 33 17 50 50 50 33 0 43 -9 29
-27 -9 -10 -6 -13 15 -13 20 0 26 5 26 23 0 15 -6 23 -17 23 -10 0 -27 3 -38
6 -11 4 -30 3 -43 -2z"/>
<path d="M1431 6495 c-1 -47 1 -51 24 -53 13 -1 26 2 29 6 3 5 -5 8 -17 8 -16
-1 -22 5 -22 19 0 14 6 20 22 19 12 0 19 4 16 9 -3 5 -14 7 -24 4 -12 -3 -19
2 -22 17 -2 11 -5 -2 -6 -29z"/>
<path d="M1682 6490 c0 -32 2 -47 7 -37 6 17 8 17 20 3 7 -9 18 -16 24 -16 6
0 1 7 -11 16 -23 16 -23 17 -5 38 18 21 18 21 -4 3 -21 -19 -22 -19 -26 15 -2
21 -4 13 -5 -22z"/>
<path d="M1753 6490 c0 -30 1 -47 4 -37 5 18 5 18 26 0 22 -18 22 -18 5 3 -17
19 -17 21 0 39 17 19 17 19 -5 1 -21 -18 -22 -18 -26 16 -2 20 -4 11 -4 -22z"/>
<path d="M2323 6490 c0 -30 2 -43 4 -27 2 15 2 39 0 55 -2 15 -4 2 -4 -28z"/>
<path d="M3272 6490 c0 -38 2 -49 8 -35 7 18 8 19 15 3 4 -10 12 -18 18 -18 6
0 1 10 -10 23 -12 12 -23 36 -26 52 -2 17 -4 6 -5 -25z"/>
<path d="M1227 6516 c-4 -10 -7 -31 -7 -47 0 -27 2 -29 40 -29 38 0 40 1 40
33 0 17 -5 39 -10 47 -6 10 -10 11 -10 3 0 -16 -37 -17 -42 -1 -3 7 -7 5 -11
-6z"/>
<path d="M1520 6496 c-27 -33 18 -72 48 -42 13 13 14 20 6 34 -15 23 -38 26
-54 8z m48 -19 c4 -20 -25 -34 -40 -19 -15 15 -1 44 19 40 10 -2 19 -11 21
-21z"/>
<path d="M1606 6502 c-3 -5 5 -8 17 -8 16 1 22 -5 22 -19 0 -14 -6 -20 -22
-19 -12 0 -20 -3 -17 -8 17 -27 59 9 49 42 -6 20 -39 28 -49 12z"/>
<path d="M1826 6501 c-3 -5 3 -7 14 -4 11 3 20 1 20 -5 0 -6 -12 -13 -27 -15
-26 -4 -25 -4 5 -6 27 -1 33 2 30 16 -4 20 -33 29 -42 14z"/>
<path d="M1894 6496 c-11 -28 1 -51 26 -53 22 -1 22 -1 3 4 -31 6 -29 23 3 23
20 0 25 4 20 16 -3 9 -6 18 -6 20 0 11 -41 2 -46 -10z m41 -6 c3 -5 -3 -10
-14 -10 -12 0 -21 5 -21 10 0 6 6 10 14 10 8 0 18 -4 21 -10z"/>
<path d="M1973 6460 c0 -30 1 -47 4 -37 2 9 10 17 18 17 20 0 37 27 30 50 -3
11 -14 20 -23 20 -13 0 -13 -2 3 -14 21 -15 15 -46 -9 -46 -9 0 -16 12 -19 33
-2 18 -4 8 -4 -23z"/>
<path d="M2053 6475 c0 -22 2 -30 4 -17 2 12 2 30 0 40 -3 9 -5 -1 -4 -23z"/>
<path d="M2081 6471 c1 -36 1 -36 8 -6 3 17 13 30 21 30 8 0 18 -13 22 -30 6
-29 6 -29 5 5 -2 31 -5 35 -29 36 -26 1 -28 -2 -27 -35z"/>
<path d="M2164 6496 c-11 -28 1 -51 24 -50 29 1 23 -18 -9 -27 -21 -6 -21 -7
-3 -8 29 -1 44 18 44 59 0 31 -3 36 -25 38 -15 1 -28 -4 -31 -12z m41 -21 c0
-11 -8 -21 -17 -23 -14 -3 -18 3 -18 23 0 20 4 26 18 23 9 -2 17 -12 17 -23z"/>
<path d="M2274 6496 c-9 -23 0 -51 16 -52 9 0 10 1 3 3 -20 7 -16 51 5 56 16
4 16 5 -1 6 -10 0 -20 -5 -23 -13z"/>
<path d="M2360 6495 c-18 -22 -1 -49 31 -52 19 -1 20 -1 4 4 -34 9 -41 23 -11
23 21 0 27 4 24 17 -4 24 -32 28 -48 8z m40 -5 c0 -5 -9 -10 -21 -10 -11 0
-17 5 -14 10 3 6 13 10 21 10 8 0 14 -4 14 -10z"/>
<path d="M2420 6505 c0 -5 5 -17 10 -25 5 -8 10 -10 10 -5 0 6 -5 17 -10 25
-5 8 -10 11 -10 5z"/>
<path d="M2529 6494 c-16 -19 -1 -48 27 -51 15 -2 14 -1 -3 7 -13 5 -23 16
-23 25 0 9 10 20 23 25 15 6 17 9 6 9 -9 1 -22 -6 -30 -15z"/>
<path d="M2613 6504 c23 -7 22 -20 -3 -27 -30 -8 -25 -37 6 -37 23 0 25 3 22
32 -2 24 -8 33 -23 35 -16 1 -16 1 -2 -3z m17 -44 c0 -5 -7 -10 -15 -10 -8 0
-15 5 -15 10 0 6 7 10 15 10 8 0 15 -4 15 -10z"/>
<path d="M2661 6455 c1 -27 4 -40 6 -29 3 15 10 20 22 17 10 -3 21 -1 24 4 3
5 -4 9 -16 9 -16 -1 -22 5 -22 19 0 14 6 20 22 19 12 0 20 3 17 8 -3 4 -16 7
-29 6 -23 -2 -25 -6 -24 -53z"/>
<path d="M2753 6475 c0 -22 2 -30 4 -17 2 12 2 30 0 40 -3 9 -5 -1 -4 -23z"/>
<path d="M2784 6481 c0 -21 7 -36 16 -38 10 -3 11 -2 3 4 -6 4 -13 22 -16 38
-4 27 -5 27 -3 -4z"/>
<path d="M2823 6475 c0 -22 2 -30 4 -17 2 12 2 30 0 40 -3 9 -5 -1 -4 -23z"/>
<path d="M2863 6475 c0 -22 2 -30 4 -17 2 12 2 30 0 40 -3 9 -5 -1 -4 -23z"/>
<path d="M2889 6502 c6 -2 12 -18 12 -35 l1 -32 7 29 c9 42 29 44 34 4 l4 -33
1 37 c2 35 1 36 -34 35 -20 -1 -32 -3 -25 -5z"/>
<path d="M3016 6501 c-4 -5 3 -7 14 -4 23 6 26 13 6 13 -8 0 -17 -4 -20 -9z"/>
<path d="M3074 6496 c-14 -37 22 -74 47 -49 6 6 1 9 -13 9 -14 -1 -24 6 -26
17 -4 22 27 35 40 16 8 -12 9 -11 5 1 -5 20 -46 25 -53 6z"/>
<path d="M3233 6475 c0 -22 2 -30 4 -17 2 12 2 30 0 40 -3 9 -5 -1 -4 -23z"/>
<path d="M3295 6499 c-11 -17 1 -21 15 -4 8 9 8 15 2 15 -6 0 -14 -5 -17 -11z"/>
<path d="M1828 6448 c6 -6 18 -8 28 -6 14 3 12 5 -9 10 -19 3 -25 2 -19 -4z"/>
<path d="M2440 6449 c0 -5 5 -7 10 -4 6 3 10 8 10 11 0 2 -4 4 -10 4 -5 0 -10
-5 -10 -11z"/>
<path d="M3018 6448 c5 -5 16 -8 23 -6 8 3 3 7 -10 11 -17 4 -21 3 -13 -5z"/>
<path d="M3190 6450 c0 -6 7 -10 15 -10 8 0 15 2 15 4 0 2 -7 6 -15 10 -8 3
-15 1 -15 -4z"/>
<path d="M399 6203 c-12 -16 -12 -17 1 -7 8 6 22 14 30 17 13 5 12 6 -1 6 -9
1 -23 -7 -30 -16z"/>
<path d="M965 6210 c-9 -14 1 -27 37 -44 29 -15 33 -15 50 0 26 24 22 34 -10
28 -19 -4 -32 -1 -41 10 -15 18 -27 20 -36 6z"/>
<path d="M1209 6203 c-12 -16 -12 -17 1 -7 8 7 24 14 35 17 19 4 19 5 -1 6
-12 0 -28 -7 -35 -16z"/>
<path d="M2443 6175 c0 -27 2 -38 4 -22 2 15 2 37 0 50 -2 12 -4 0 -4 -28z"/>
<path d="M478 6183 c7 -3 16 -2 19 1 4 3 -2 6 -13 5 -11 0 -14 -3 -6 -6z"/>
<path d="M536 6181 c-4 -5 3 -7 14 -4 23 6 26 13 6 13 -8 0 -17 -4 -20 -9z"/>
<path d="M705 6181 c-3 -7 0 -8 9 -5 10 4 16 -3 19 -23 l5 -28 -2 29 c-1 30
-19 45 -31 27z"/>
<path d="M1295 6181 c-3 -7 0 -8 9 -5 10 4 16 -3 19 -23 l5 -28 -2 29 c-1 30
-19 45 -31 27z"/>
<path d="M1398 6183 c7 -3 16 -2 19 1 4 3 -2 6 -13 5 -11 0 -14 -3 -6 -6z"/>
<path d="M1452 6160 c0 -19 2 -27 5 -17 2 9 2 25 0 35 -3 9 -5 1 -5 -18z"/>
<path d="M1916 6181 c-4 -5 3 -7 14 -4 23 6 26 13 6 13 -8 0 -17 -4 -20 -9z"/>
<path d="M1978 6183 c7 -3 16 -2 19 1 4 3 -2 6 -13 5 -11 0 -14 -3 -6 -6z"/>
<path d="M2033 6145 c-1 -27 1 -42 4 -32 2 9 11 17 18 17 8 0 16 4 19 9 4 5
-3 7 -13 4 -15 -4 -20 1 -24 24 -2 15 -4 6 -4 -22z"/>
<path d="M2050 6186 c0 -2 7 -7 16 -10 8 -3 12 -2 9 4 -6 10 -25 14 -25 6z"/>
<path d="M2102 6160 c0 -19 2 -27 5 -17 2 9 2 25 0 35 -3 9 -5 1 -5 -18z"/>
<path d="M2205 6181 c-3 -7 0 -8 9 -5 10 4 16 -3 19 -23 l5 -28 -2 29 c-1 30
-19 45 -31 27z"/>
<path d="M2256 6183 c7 -4 14 -19 17 -33 4 -22 5 -21 4 4 -1 17 -9 31 -17 33
-10 3 -11 2 -4 -4z"/>
<path d="M2333 6166 c1 -17 9 -31 17 -33 10 -3 11 -2 4 4 -7 4 -14 19 -17 33
-4 22 -5 21 -4 -4z"/>
<path d="M2372 6160 c0 -19 2 -27 5 -17 2 9 2 25 0 35 -3 9 -5 1 -5 -18z"/>
<path d="M2402 6160 c0 -19 2 -27 5 -17 2 9 2 25 0 35 -3 9 -5 1 -5 -18z"/>
<path d="M465 6160 c-8 -13 3 -30 18 -29 9 0 9 2 0 6 -18 7 -16 23 1 23 8 0
17 -8 19 -17 4 -14 5 -12 6 5 1 16 -5 22 -18 22 -11 0 -23 -4 -26 -10z"/>
<path d="M1385 6160 c-8 -13 3 -30 18 -29 9 0 9 2 0 6 -18 7 -16 23 1 23 8 0
17 -8 19 -17 4 -14 5 -12 6 5 1 16 -5 22 -18 22 -11 0 -23 -4 -26 -10z"/>
<path d="M1965 6160 c-8 -13 3 -30 18 -29 9 0 9 2 0 6 -18 7 -16 23 1 23 8 0
17 -8 19 -17 4 -14 5 -12 6 5 1 16 -5 22 -18 22 -11 0 -23 -4 -26 -10z"/>
<path d="M402 6144 c9 -9 21 -15 27 -13 6 2 -2 10 -17 17 -25 11 -25 11 -10
-4z"/>
<path d="M1209 6148 c7 -10 23 -17 35 -17 20 1 20 2 1 6 -11 3 -27 10 -35 17
-13 10 -13 9 -1 -6z"/>
<path d="M538 6138 c5 -5 16 -8 23 -6 8 3 3 7 -10 11 -17 4 -21 3 -13 -5z"/>
<path d="M645 6140 c-16 -7 -17 -9 -3 -9 9 -1 20 4 23 9 7 11 7 11 -20 0z"/>
<path d="M1918 6138 c5 -5 16 -8 23 -6 8 3 3 7 -10 11 -17 4 -21 3 -13 -5z"/>
<path d="M2145 6140 c-16 -7 -17 -9 -3 -9 9 -1 20 4 23 9 7 11 7 11 -20 0z"/>
<path d="M790 5410 l0 -70 70 0 70 0 0 70 0 70 -70 0 -70 0 0 -70z"/>
<path d="M2072 5418 c-7 -7 -12 -20 -12 -30 0 -9 -7 -21 -16 -26 -15 -8 -15
-10 0 -15 12 -5 16 -20 16 -57 0 -27 5 -50 10 -50 6 0 10 25 10 55 0 52 1 55
24 55 22 0 25 -5 28 -46 3 -46 27 -78 45 -60 4 4 0 12 -10 17 -23 13 -23 74 1
88 10 6 12 11 4 11 -7 0 -17 10 -22 23 l-9 22 -7 -22 c-9 -31 -54 -32 -54 -3
0 11 7 23 15 26 8 4 15 10 15 15 0 13 -24 11 -38 -3z"/>
<path d="M1407 5414 c-8 -8 1 -24 14 -24 5 0 9 7 9 15 0 15 -12 20 -23 9z"/>
<path d="M1180 5326 c0 -51 4 -86 10 -86 6 0 10 31 10 72 0 82 7 81 42 -7 13
-33 28 -58 34 -57 5 2 21 34 36 70 l27 67 0 -72 c1 -58 4 -73 16 -73 12 0 15
16 15 85 0 79 -2 85 -20 85 -12 0 -24 -9 -29 -22 -5 -13 -18 -43 -28 -68 l-20
-44 -24 64 c-19 50 -30 66 -47 68 -21 3 -22 0 -22 -82z"/>
<path d="M2287 5343 c-14 -38 -28 -76 -32 -85 -5 -12 -2 -18 8 -18 8 0 18 11
21 25 5 21 12 25 45 25 33 0 40 -4 45 -25 4 -14 13 -25 21 -25 11 0 9 14 -12
68 -14 37 -28 75 -30 85 -3 9 -13 17 -23 17 -13 0 -25 -19 -43 -67z m61 0 c11
-32 10 -33 -20 -33 -23 0 -29 3 -24 16 3 9 9 27 12 41 8 28 17 21 32 -24z"/>
<path d="M1481 5351 c-26 -26 -27 -72 -3 -94 21 -19 57 -22 67 -7 3 6 -4 10
-17 10 -30 0 -48 17 -48 46 0 28 24 48 51 41 13 -3 19 -1 16 6 -6 21 -45 19
-66 -2z"/>
<path d="M1621 5361 c-8 -5 -20 -7 -28 -4 -10 4 -13 -9 -13 -56 0 -34 4 -61
10 -61 6 0 10 20 10 45 0 33 5 47 19 54 10 6 21 7 25 4 3 -3 6 1 6 10 0 19 -8
21 -29 8z"/>
<path d="M1690 5357 c-19 -9 -26 -22 -28 -48 -5 -63 54 -93 98 -49 51 51 -5
129 -70 97z m60 -32 c12 -32 -6 -65 -34 -65 -24 0 -36 16 -36 49 0 41 56 54
70 16z"/>
<path d="M1816 5357 c-24 -18 -14 -50 20 -66 30 -13 23 -31 -12 -31 -13 0 -24
-5 -24 -11 0 -17 62 -6 74 14 9 15 5 23 -22 45 -34 28 -34 42 0 42 11 0 16 5
13 10 -9 14 -28 13 -49 -3z"/>
<path d="M1935 5358 c-27 -15 -35 -28 -35 -59 0 -52 69 -79 103 -41 20 22 22
75 5 90 -23 17 -52 22 -73 10z m53 -20 c7 -7 12 -21 12 -33 0 -46 -53 -62 -71
-21 -21 45 26 87 59 54z"/>
<path d="M2735 5360 c-4 -6 -15 -8 -26 -5 -17 6 -19 1 -19 -54 0 -72 15 -81
23 -15 5 44 21 69 39 58 4 -3 8 2 8 10 0 18 -16 21 -25 6z"/>
<path d="M2810 5362 c-39 -12 -54 -77 -24 -106 17 -18 69 -22 79 -6 4 6 -8 10
-28 10 -23 0 -37 6 -41 16 -9 24 -9 24 39 24 47 0 57 12 33 42 -16 19 -38 27
-58 20z m38 -35 c3 -13 -3 -17 -27 -17 -33 0 -39 8 -19 28 17 17 42 11 46 -11z"/>
<path d="M1400 5300 c0 -47 3 -60 15 -60 12 0 15 13 15 60 0 47 -3 60 -15 60
-12 0 -15 -13 -15 -60z"/>
<path d="M2458 5353 c17 -2 32 -7 32 -11 0 -4 -14 -25 -30 -46 -17 -22 -30
-43 -30 -48 0 -4 23 -8 50 -8 28 0 50 5 50 10 0 6 -16 10 -36 10 l-36 0 36 50
36 50 -53 -2 c-36 -1 -42 -2 -19 -5z"/>
<path d="M2552 5309 c3 -60 24 -82 58 -61 12 7 20 8 20 2 0 -5 7 -10 15 -10
12 0 15 13 15 60 0 46 -3 60 -14 60 -11 0 -16 -14 -18 -47 -3 -44 -5 -48 -28
-48 -23 0 -25 4 -28 48 -2 26 -8 47 -13 47 -6 0 -9 -22 -7 -51z"/>
<path d="M1740 3745 c0 -57 4 -95 10 -95 6 0 10 5 10 12 0 9 3 9 12 0 31 -31
88 6 88 56 0 16 -9 37 -21 47 -17 16 -25 17 -50 8 l-29 -11 0 39 c0 21 -4 39
-10 39 -6 0 -10 -38 -10 -95z m74 9 c20 -8 21 -57 1 -74 -32 -27 -66 13 -47
56 12 25 20 28 46 18z"/>
<path d="M2485 3831 c-7 -12 12 -24 25 -16 11 7 4 25 -10 25 -5 0 -11 -4 -15
-9z"/>
<path d="M3290 3824 c0 -9 5 -14 12 -12 18 6 21 28 4 28 -9 0 -16 -7 -16 -16z"/>
<path d="M4110 3805 c0 -33 -2 -35 -25 -29 -38 9 -65 -19 -65 -68 0 -32 5 -41
26 -50 20 -9 30 -9 45 0 11 7 19 8 19 2 0 -5 7 -10 15 -10 12 0 15 17 15 95 0
78 -3 95 -15 95 -10 0 -15 -11 -15 -35z m-16 -51 c10 -4 16 -18 16 -39 0 -41
-35 -59 -57 -29 -17 23 -16 39 3 58 18 18 17 18 38 10z"/>
<path d="M4582 3828 c6 -18 28 -21 28 -4 0 9 -7 16 -16 16 -9 0 -14 -5 -12
-12z"/>
<path d="M4745 3831 c-7 -12 12 -24 25 -16 11 7 4 25 -10 25 -5 0 -11 -4 -15
-9z"/>
<path d="M5216 3824 c-9 -8 -16 -21 -16 -29 0 -7 -6 -16 -12 -19 -10 -5 -10
-7 0 -12 7 -3 12 -26 12 -60 0 -41 4 -54 15 -54 12 0 15 13 15 55 0 42 3 55
15 55 8 0 15 5 15 10 0 6 -7 10 -15 10 -22 0 -18 31 5 37 11 3 17 9 14 14 -8
14 -31 11 -48 -7z"/>
<path d="M790 3825 c0 -3 11 -28 25 -55 14 -27 25 -65 25 -85 0 -24 4 -35 15
-35 11 0 15 11 15 38 0 22 12 58 29 90 35 63 16 74 -21 11 l-24 -41 -19 41
c-10 23 -24 41 -32 41 -7 0 -13 -2 -13 -5z"/>
<path d="M4663 3803 c-4 -10 -11 -22 -17 -26 -8 -6 -7 -10 2 -14 7 -3 12 -24
12 -53 0 -34 4 -50 16 -54 24 -9 44 -7 44 4 0 6 -7 10 -15 10 -11 0 -15 12
-15 45 0 33 4 45 15 45 8 0 15 5 15 10 0 6 -7 10 -15 10 -8 0 -15 9 -15 20 0
25 -18 26 -27 3z"/>
<path d="M940 3760 c-40 -40 -11 -110 45 -110 57 0 88 83 43 114 -31 22 -64
20 -88 -4z m67 -8 c24 -15 19 -69 -7 -77 -26 -8 -50 11 -50 39 0 36 29 56 57
38z"/>
<path d="M1080 3731 c0 -52 17 -81 49 -81 9 0 22 5 29 12 9 9 12 9 12 0 0 -7
7 -12 15 -12 12 0 15 14 15 65 0 51 -3 65 -15 65 -11 0 -15 -12 -15 -44 0 -46
-19 -72 -45 -62 -11 4 -15 20 -15 56 0 38 -4 50 -15 50 -11 0 -15 -12 -15 -49z"/>
<path d="M1240 3715 c0 -72 17 -90 22 -22 2 32 8 44 26 52 12 5 22 15 22 22 0
19 -27 16 -39 -4 -10 -17 -10 -17 -11 0 0 9 -4 17 -10 17 -6 0 -10 -28 -10
-65z"/>
<path d="M1393 3768 c2 -7 10 -37 17 -65 18 -69 41 -71 59 -5 l14 47 14 -47
c18 -60 38 -62 53 -7 6 23 16 52 20 65 7 18 6 24 -4 24 -9 0 -19 -21 -27 -52
l-13 -53 -14 53 c-8 28 -21 52 -28 52 -6 0 -18 -23 -25 -50 -14 -54 -24 -51
-34 12 -4 25 -12 38 -22 38 -8 0 -13 -6 -10 -12z"/>
<path d="M1610 3760 c-51 -51 5 -130 74 -104 25 10 19 22 -9 16 -25 -4 -55 12
-55 29 0 5 20 9 45 9 49 0 56 10 29 48 -19 28 -57 29 -84 2z m68 -17 c2 -9 -7
-13 -27 -13 -30 0 -39 9 -24 24 11 10 46 3 51 -11z"/>
<path d="M1983 3773 c-22 -8 -14 -25 7 -18 12 4 28 1 37 -7 14 -11 11 -14 -23
-24 -31 -9 -40 -16 -42 -37 -4 -33 19 -45 54 -29 15 7 24 8 24 2 0 -6 5 -10
10 -10 14 0 12 104 -2 118 -12 12 -43 15 -65 5z m55 -75 c-7 -21 -36 -34 -49
-21 -6 6 -8 16 -5 22 10 15 59 14 54 -1z"/>
<path d="M2100 3685 c0 -78 3 -95 15 -95 11 0 15 11 15 42 0 33 3 39 12 30 32
-32 78 4 78 62 0 29 -5 39 -26 48 -20 9 -30 9 -45 0 -11 -7 -19 -8 -19 -2 0 5
-7 10 -15 10 -12 0 -15 -17 -15 -95z m88 63 c28 -28 0 -85 -36 -74 -36 12 -25
86 13 86 6 0 16 -5 23 -12z"/>
<path d="M2260 3685 c0 -57 4 -95 10 -95 6 0 10 19 10 42 0 33 3 39 12 30 31
-31 88 6 88 56 0 16 -9 37 -21 47 -17 16 -25 17 -50 8 -16 -6 -29 -7 -29 -2 0
5 -4 9 -10 9 -6 0 -10 -38 -10 -95z m74 69 c20 -8 21 -57 1 -74 -32 -27 -66
13 -47 56 12 25 20 28 46 18z"/>
<path d="M2490 3715 c0 -37 4 -65 10 -65 6 0 10 28 10 65 0 37 -4 65 -10 65
-6 0 -10 -28 -10 -65z"/>
<path d="M2562 3768 c-22 -22 -14 -48 18 -60 37 -12 34 -33 -3 -33 -16 1 -27
-5 -27 -12 0 -18 55 -16 74 3 23 23 20 32 -19 55 -38 23 -37 44 2 36 15 -3 22
0 20 7 -5 16 -50 19 -65 4z"/>
<path d="M2740 3715 c0 -72 17 -90 22 -22 2 32 8 44 26 52 12 5 22 15 22 22 0
19 -27 16 -39 -4 -10 -17 -10 -17 -11 0 0 9 -4 17 -10 17 -6 0 -10 -28 -10
-65z"/>
<path d="M2830 3731 c0 -52 17 -81 49 -81 9 0 22 5 29 12 9 9 12 9 12 0 0 -7
7 -12 15 -12 12 0 15 14 15 65 0 51 -3 65 -15 65 -11 0 -15 -12 -15 -44 0 -46
-19 -72 -45 -62 -11 4 -15 20 -15 56 0 38 -4 50 -15 50 -11 0 -15 -12 -15 -49z"/>
<path d="M2990 3715 c0 -37 4 -65 10 -65 6 0 10 20 10 44 0 46 19 72 45 62 11
-4 15 -20 15 -56 0 -38 4 -50 15 -50 21 0 21 93 -1 114 -18 19 -28 20 -55 6
-13 -7 -19 -7 -19 0 0 5 -4 10 -10 10 -6 0 -10 -28 -10 -65z"/>
<path d="M3140 3715 c0 -37 4 -65 10 -65 6 0 10 20 10 44 0 46 19 72 45 62 11
-4 15 -20 15 -56 0 -38 4 -50 15 -50 20 0 21 88 1 116 -13 17 -18 18 -45 7
-17 -6 -31 -7 -31 -2 0 5 -4 9 -10 9 -6 0 -10 -28 -10 -65z"/>
<path d="M3290 3715 c0 -51 3 -65 15 -65 12 0 15 14 15 65 0 51 -3 65 -15 65
-12 0 -15 -14 -15 -65z"/>
<path d="M3360 3715 c0 -37 4 -65 10 -65 6 0 10 20 10 44 0 46 19 72 45 62 11
-4 15 -20 15 -56 0 -38 4 -50 15 -50 20 0 21 88 1 116 -13 17 -18 18 -45 7
-17 -6 -31 -7 -31 -2 0 5 -4 9 -10 9 -6 0 -10 -28 -10 -65z"/>
<path d="M3520 3760 c-25 -25 -26 -61 -1 -91 17 -22 22 -23 50 -12 25 9 31 9
31 -2 0 -26 -32 -47 -62 -41 -21 4 -28 2 -26 -7 7 -20 62 -20 88 1 19 16 24
30 28 95 4 67 2 77 -12 77 -9 0 -16 -5 -16 -12 0 -9 -3 -9 -12 0 -18 18 -45
15 -68 -8z m68 -12 c30 -30 -2 -93 -36 -71 -21 13 -27 50 -12 69 15 17 32 18
48 2z"/>
<path d="M3753 3773 c-24 -9 -13 -23 13 -17 17 4 29 2 35 -7 6 -11 -1 -17 -29
-25 -29 -8 -38 -16 -40 -36 -4 -31 26 -45 58 -28 13 7 20 7 20 0 0 -5 5 -10
10 -10 14 0 12 104 -2 118 -12 12 -43 15 -65 5z m55 -75 c-7 -21 -36 -34 -49
-21 -6 6 -8 16 -5 22 10 15 59 14 54 -1z"/>
<path d="M3870 3715 c0 -51 3 -65 15 -65 11 0 15 12 15 44 0 51 20 76 45 56 9
-8 15 -30 15 -56 0 -24 5 -44 10 -44 7 0 10 22 8 56 -3 66 -23 88 -58 66 -12
-7 -20 -8 -20 -2 0 5 -7 10 -15 10 -12 0 -15 -14 -15 -65z"/>
<path d="M4240 3769 c0 -30 35 -119 47 -119 7 0 19 21 27 48 8 27 16 41 19 32
3 -8 10 -28 15 -45 15 -52 37 -42 56 26 9 34 15 64 12 66 -11 11 -25 -10 -31
-47 -8 -48 -21 -44 -30 10 -9 54 -32 52 -47 -5 -7 -25 -15 -45 -19 -45 -3 0
-10 19 -15 42 -8 38 -34 66 -34 37z"/>
<path d="M4463 3773 c-24 -9 -13 -21 18 -19 46 2 47 -20 2 -31 -31 -7 -38 -13
-38 -32 0 -33 29 -50 55 -33 12 7 20 8 20 2 0 -5 7 -10 15 -10 21 0 21 93 -1
114 -15 16 -46 20 -71 9z m57 -77 c0 -15 -37 -32 -47 -22 -3 3 -3 12 0 21 8
19 47 20 47 1z"/>
<path d="M4590 3715 c0 -37 4 -65 10 -65 6 0 10 28 10 65 0 37 -4 65 -10 65
-6 0 -10 -28 -10 -65z"/>
<path d="M4750 3715 c0 -37 4 -65 10 -65 6 0 10 28 10 65 0 37 -4 65 -10 65
-6 0 -10 -28 -10 -65z"/>
<path d="M4820 3715 c0 -37 4 -65 10 -65 6 0 10 20 10 44 0 46 19 72 45 62 11
-4 15 -20 15 -56 0 -38 4 -50 15 -50 21 0 21 93 -1 114 -18 19 -28 20 -55 6
-13 -7 -19 -7 -19 0 0 5 -4 10 -10 10 -6 0 -10 -28 -10 -65z"/>
<path d="M4976 3761 c-46 -50 14 -147 62 -99 20 20 26 0 7 -28 -14 -22 -22
-25 -47 -20 -21 4 -28 2 -26 -7 7 -19 56 -20 84 -2 22 14 24 22 24 93 l0 77
-44 2 c-31 1 -49 -4 -60 -16z m74 -20 c14 -27 13 -37 -6 -55 -20 -20 -29 -20
-49 0 -10 10 -13 24 -9 38 12 39 47 48 64 17z"/>
<path d="M5302 3764 c-15 -10 -22 -25 -22 -49 0 -63 71 -87 110 -38 49 63 -22
133 -88 87z m66 -16 c24 -24 8 -78 -24 -78 -17 0 -44 28 -44 45 0 17 27 45 44
45 6 0 17 -5 24 -12z"/>
<path d="M5440 3715 c0 -51 3 -65 15 -65 11 0 15 12 15 46 0 37 4 47 20 51 11
3 20 12 20 19 0 17 -12 18 -28 2 -9 -9 -12 -9 -12 0 0 7 -7 12 -15 12 -12 0
-15 -14 -15 -65z"/>
<path d="M7153 3655 l-53 -32 213 -121 c116 -67 433 -250 702 -405 l490 -284
1 -444 c0 -244 -1 -414 -3 -376 -4 67 -4 67 -33 67 l-30 0 0 -110 c0 -60 -2
-110 -5 -110 -3 0 -92 50 -197 110 -184 105 -195 110 -250 110 -55 0 -67 5
-250 109 l-192 109 -35 -24 c-20 -13 -64 -39 -98 -59 -35 -20 -63 -37 -63 -39
0 -2 92 -56 205 -122 132 -76 200 -121 190 -124 -12 -4 -5 -12 25 -29 l40 -22
119 65 119 66 230 -133 229 -134 57 31 56 31 0 546 0 546 -26 12 c-19 8 -1165
667 -1359 781 -30 17 -30 17 -82 -15z"/>
<path d="M8701 3615 c-57 -26 -128 -75 -150 -106 -96 -130 -1 -426 186 -581
61 -51 73 -56 73 -34 0 8 16 28 35 45 44 38 82 40 150 6 82 -42 92 -49 135
-101 49 -59 84 -129 105 -209 18 -72 18 -108 1 -157 -17 -48 -10 -50 10 -3 40
96 -4 261 -103 382 l-45 55 26 26 c81 86 73 265 -21 437 -47 85 -150 192 -218
224 -62 30 -138 37 -184 16z m-1 -136 c11 -8 12 -12 3 -16 -9 -3 -13 -28 -13
-77 0 -40 -5 -77 -10 -82 -8 -8 -8 -19 0 -38 5 -15 10 -60 10 -100 0 -43 5
-77 12 -84 9 -9 9 -12 1 -12 -28 0 -43 45 -43 123 0 43 -5 88 -11 100 -9 16
-9 22 0 25 7 2 11 32 11 81 0 91 6 104 40 80z m239 -237 c1 -48 8 -93 15 -101
8 -11 8 -15 -1 -18 -9 -3 -13 -26 -13 -69 0 -50 -3 -64 -15 -64 -12 0 -15 14
-15 68 0 40 5 73 12 80 9 9 9 15 0 24 -7 7 -12 44 -12 94 0 46 -4 86 -10 89
-5 3 -10 11 -10 18 0 6 10 1 23 -11 19 -19 23 -35 26 -110z"/>
<path d="M1853 3503 c-7 -3 -13 -11 -13 -18 0 -7 -6 -16 -12 -19 -10 -5 -10
-7 0 -12 6 -3 12 -21 12 -40 0 -46 16 -74 40 -74 23 0 27 15 5 24 -10 3 -15
19 -15 46 0 29 4 40 15 40 8 0 15 5 15 10 0 6 -6 10 -14 10 -8 0 -16 8 -18 18
-2 11 -9 17 -15 15z"/>
<path d="M2235 3495 c-5 -11 -13 -24 -19 -28 -8 -6 -7 -10 2 -14 7 -3 12 -24
12 -54 0 -53 14 -68 48 -54 14 6 15 8 2 13 -36 12 -43 80 -10 89 26 7 26 23 1
23 -12 0 -21 8 -24 23 -3 21 -4 21 -12 2z"/>
<path d="M790 3463 c0 -4 10 -36 22 -71 l23 -64 -24 -19 c-27 -22 -23 -34 7
-24 18 5 46 60 89 171 3 8 -1 14 -10 14 -8 0 -18 -11 -21 -25 -3 -13 -11 -37
-17 -52 l-11 -28 -17 49 c-10 28 -23 52 -29 54 -7 2 -12 0 -12 -5z"/>
<path d="M946 3454 c-58 -57 3 -142 73 -103 33 18 41 72 15 100 -21 23 -67 25
-88 3z m68 -20 c9 -8 16 -22 16 -29 0 -17 -27 -45 -44 -45 -32 0 -48 54 -24
78 16 16 33 15 52 -4z"/>
<path d="M1080 3433 c0 -21 3 -48 6 -61 8 -26 48 -39 69 -22 10 9 15 9 15 1 0
-6 7 -11 15 -11 12 0 15 14 15 65 0 51 -3 65 -15 65 -11 0 -15 -12 -15 -44 0
-47 -17 -70 -44 -60 -12 4 -16 19 -16 55 0 37 -4 49 -15 49 -11 0 -15 -11 -15
-37z"/>
<path d="M1240 3405 c0 -51 3 -65 15 -65 11 0 15 12 15 46 0 37 4 47 20 51 11
3 20 12 20 19 0 17 -12 18 -28 2 -9 -9 -12 -9 -12 0 0 7 -7 12 -15 12 -12 0
-15 -14 -15 -65z"/>
<path d="M1421 3451 c-29 -29 -27 -76 3 -97 28 -18 67 -16 74 5 3 9 0 11 -7 6
-18 -10 -58 2 -65 21 -11 28 22 67 50 61 16 -3 23 0 21 7 -7 20 -55 18 -76 -3z"/>
<path d="M1540 3450 c-40 -40 -11 -110 45 -110 57 0 88 83 43 114 -31 22 -64
20 -88 -4z m67 -8 c24 -15 19 -69 -7 -77 -26 -8 -50 11 -50 39 0 36 29 56 57
38z"/>
<path d="M1690 3405 c0 -37 4 -65 10 -65 6 0 10 20 10 44 0 46 19 72 45 62 11
-4 15 -20 15 -56 0 -38 4 -50 15 -50 21 0 21 93 -1 114 -18 19 -28 20 -55 6
-13 -7 -19 -7 -19 0 0 5 -4 10 -10 10 -6 0 -10 -28 -10 -65z"/>
<path d="M1940 3450 c-51 -51 5 -130 74 -104 25 10 19 22 -9 16 -25 -4 -55 12
-55 29 0 5 20 9 45 9 49 0 56 10 29 48 -19 28 -57 29 -84 2z m68 -17 c2 -9 -7
-13 -27 -13 -30 0 -39 9 -24 24 11 10 46 3 51 -11z"/>
<path d="M2070 3405 c0 -37 4 -65 10 -65 6 0 10 20 10 44 0 46 19 72 45 62 11
-4 15 -20 15 -56 0 -38 4 -50 15 -50 20 0 21 88 1 116 -13 17 -18 18 -45 7
-17 -6 -31 -7 -31 -2 0 5 -4 9 -10 9 -6 0 -10 -28 -10 -65z"/>
<path d="M1350 2713 l0 -60 33 1 c30 1 32 3 32 36 0 26 -4 35 -18 36 -13 2
-14 1 -2 -3 25 -7 16 -58 -10 -58 -17 0 -20 7 -22 49 -3 70 -13 70 -13 -1z"/>
<path d="M1800 2760 c0 -5 5 -10 10 -10 6 0 10 5 10 10 0 6 -4 10 -10 10 -5 0
-10 -4 -10 -10z"/>
<path d="M1963 2710 c0 -36 2 -50 4 -32 2 17 2 47 0 65 -2 17 -4 3 -4 -33z"/>
<path d="M1990 2760 c0 -5 5 -10 10 -10 6 0 10 5 10 10 0 6 -4 10 -10 10 -5 0
-10 -4 -10 -10z"/>
<path d="M2271 2715 c-1 -57 0 -61 23 -63 29 -2 49 19 44 50 -2 17 -10 23 -28
23 -18 0 -27 7 -31 25 -4 16 -7 3 -8 -35z m54 -25 c0 -16 -6 -26 -18 -28 -19
-4 -32 20 -23 44 9 25 41 13 41 -16z"/>
<path d="M2853 2710 c0 -36 2 -50 4 -32 2 17 2 47 0 65 -2 17 -4 3 -4 -33z"/>
<path d="M3212 2710 c1 -48 2 -56 7 -30 8 48 38 54 44 8 l4 -33 -1 35 c-1 28
-5 35 -21 35 -13 0 -22 9 -26 25 -4 14 -7 -2 -7 -40z"/>
<path d="M4874 2748 c-5 -13 -7 -41 -3 -63 l6 -40 2 38 c0 22 6 37 14 37 8 0
7 4 -3 10 -13 9 -12 12 4 25 15 12 16 15 5 15 -9 0 -20 -10 -25 -22z"/>
<path d="M791 2755 c0 -5 6 -21 14 -35 8 -14 15 -36 16 -50 1 -22 2 -21 9 7 4
18 15 45 25 60 15 23 16 26 2 15 -9 -8 -19 -23 -23 -35 -6 -19 -8 -18 -25 14
-10 19 -18 30 -18 24z"/>
<path d="M4833 2705 c0 -33 2 -45 4 -27 2 18 2 45 0 60 -2 15 -4 0 -4 -33z"/>
<path d="M2458 2737 c-7 -22 7 -80 20 -83 7 -1 8 0 2 3 -12 6 -13 60 -1 65 5
2 3 8 -4 15 -10 9 -14 9 -17 0z"/>
<path d="M3112 2733 c-8 -8 -9 -13 -2 -13 5 0 10 -16 10 -35 0 -27 4 -35 18
-34 10 0 12 3 5 6 -15 5 -18 60 -4 65 5 2 4 8 -3 14 -8 8 -15 7 -24 -3z"/>
<path d="M4208 2737 c-7 -22 7 -80 20 -83 7 -1 8 0 2 3 -12 6 -13 60 -1 65 5
2 3 8 -4 15 -10 9 -14 9 -17 0z"/>
<path d="M4432 2733 c-8 -8 -9 -13 -2 -13 5 0 10 -16 10 -35 0 -27 4 -35 18
-34 10 0 12 3 5 6 -15 5 -18 60 -4 65 5 2 4 8 -3 14 -8 8 -15 7 -24 -3z"/>
<path d="M4692 2733 c-8 -8 -9 -13 -2 -13 5 0 10 -16 10 -35 0 -27 4 -35 18
-34 10 0 12 3 5 6 -15 5 -18 60 -4 65 5 2 4 8 -3 14 -8 8 -15 7 -24 -3z"/>
<path d="M877 2724 c-14 -14 -7 -26 8 -14 20 17 45 5 45 -20 0 -26 -25 -36
-47 -19 -14 12 -16 12 -11 -1 7 -21 48 -19 62 3 8 12 8 22 0 35 -12 18 -45 28
-57 16z"/>
<path d="M961 2708 c-2 -37 8 -58 27 -58 14 0 14 1 0 13 -9 6 -19 26 -21 42
-4 28 -4 29 -6 3z"/>
<path d="M1017 2698 c-3 -18 -1 -37 4 -42 5 -6 9 7 9 32 0 50 -6 54 -13 10z"/>
<path d="M1051 2685 l1 -40 8 34 c4 18 14 37 21 42 10 6 7 8 -9 6 -19 -1 -22
-7 -21 -42z"/>
<path d="M1151 2703 c5 -16 12 -34 15 -42 2 -8 7 -12 9 -9 6 5 -22 78 -30 78
-2 0 0 -12 6 -27z"/>
<path d="M1190 2721 c0 -5 -3 -18 -6 -28 -5 -15 -4 -15 4 -3 9 12 13 9 22 -14
6 -16 13 -27 15 -24 3 3 -2 21 -10 41 -15 36 -25 47 -25 28z"/>
<path d="M1277 2724 c-17 -17 -5 -34 24 -34 24 0 30 4 27 18 -3 17 -38 29 -51
16z m43 -14 c0 -5 -9 -10 -20 -10 -11 0 -20 5 -20 10 0 6 9 10 20 10 11 0 20
-4 20 -10z"/>
<path d="M1513 2724 c20 -6 23 -24 4 -24 -19 0 -36 -20 -30 -36 3 -8 13 -14
22 -14 14 1 14 2 -2 11 -19 11 -14 29 8 29 7 0 16 -10 18 -22 3 -13 4 -5 4 17
-2 32 -6 40 -22 42 -16 1 -16 1 -2 -3z"/>
<path d="M1571 2669 c1 -39 4 -54 8 -39 4 18 13 25 31 25 22 0 25 4 25 35 0
24 -5 35 -15 36 -10 1 -10 -1 -2 -3 22 -8 10 -58 -13 -58 -15 0 -20 7 -20 27
0 14 -3 30 -7 34 -5 4 -7 -22 -7 -57z"/>
<path d="M1672 2665 l1 -60 6 55 c4 40 11 56 22 58 33 6 34 -53 1 -61 -15 -4
-15 -5 0 -6 10 0 22 8 28 19 16 29 -4 60 -35 58 -24 -2 -25 -5 -23 -63z"/>
<path d="M1803 2690 c0 -25 2 -35 4 -22 2 12 2 32 0 45 -2 12 -4 2 -4 -23z"/>
<path d="M1847 2723 c-13 -13 -7 -32 13 -38 27 -9 25 -25 -2 -26 -19 -1 -20
-2 -4 -6 10 -3 23 0 30 7 8 9 6 16 -11 27 -13 9 -23 19 -23 24 0 4 10 10 23
12 20 4 20 4 1 6 -11 0 -24 -2 -27 -6z"/>
<path d="M1993 2690 c0 -25 2 -35 4 -22 2 12 2 32 0 45 -2 12 -4 2 -4 -23z"/>
<path d="M2026 2717 c3 -10 9 -15 12 -12 3 3 0 11 -7 18 -10 9 -11 8 -5 -6z"/>
<path d="M2071 2698 c-9 -26 -14 -30 -21 -18 -5 8 -10 11 -10 5 0 -5 5 -17 10
-25 7 -12 12 -7 25 24 9 21 14 40 12 43 -3 2 -10 -11 -16 -29z"/>
<path d="M2116 2722 c-3 -6 2 -8 13 -5 10 3 22 0 25 -6 5 -7 -4 -11 -23 -11
-34 0 -38 -7 -18 -34 8 -11 21 -16 33 -13 17 4 17 5 -2 6 -12 0 -24 8 -28 16
-4 11 2 15 25 15 24 0 30 4 27 18 -4 19 -42 29 -52 14z"/>
<path d="M2361 2705 c-1 -41 10 -55 42 -53 25 2 27 6 26 43 l-2 40 -6 -35 c-4
-26 -11 -35 -26 -35 -15 0 -22 9 -26 35 -6 34 -6 34 -8 5z"/>
<path d="M2551 2703 c5 -16 12 -34 15 -42 2 -8 7 -12 9 -9 6 5 -22 78 -30 78
-2 0 0 -12 6 -27z"/>
<path d="M2590 2721 c0 -5 -3 -18 -6 -28 -5 -15 -4 -15 4 -3 9 12 13 9 22 -14
6 -16 13 -27 15 -24 3 3 -2 21 -10 41 -15 36 -25 47 -25 28z"/>
<path d="M2677 2724 c-17 -17 -5 -34 24 -34 24 0 30 4 27 18 -3 17 -38 29 -51
16z m43 -14 c0 -5 -9 -10 -20 -10 -11 0 -20 5 -20 10 0 6 9 10 20 10 11 0 20
-4 20 -10z"/>
<path d="M2798 2705 c-13 -28 3 -56 31 -54 14 1 14 2 -1 6 -9 2 -19 11 -22 19
-8 20 3 42 22 47 15 4 15 5 -1 6 -10 0 -22 -10 -29 -24z"/>
<path d="M2897 2724 c-14 -14 -7 -26 8 -14 20 17 45 5 45 -20 0 -26 -25 -36
-47 -19 -14 12 -16 12 -11 -1 7 -21 48 -19 62 3 8 12 8 22 0 35 -12 18 -45 28
-57 16z"/>
<path d="M2993 2690 c0 -25 2 -35 4 -22 2 12 2 32 0 45 -2 12 -4 2 -4 -23z"/>
<path d="M3022 2718 c9 -7 19 -26 21 -43 3 -21 4 -18 3 10 -1 31 -5 41 -21 43
-18 4 -19 3 -3 -10z"/>
<path d="M3323 2724 c20 -6 23 -24 4 -24 -19 0 -36 -20 -30 -36 3 -8 13 -14
22 -14 14 1 14 2 -2 11 -19 11 -14 29 8 29 7 0 16 -10 18 -22 3 -13 4 -5 4 17
-2 32 -6 40 -22 42 -16 1 -16 1 -2 -3z"/>
<path d="M3376 2717 c3 -10 9 -15 12 -12 3 3 0 11 -7 18 -10 9 -11 8 -5 -6z"/>
<path d="M3421 2698 c-9 -26 -14 -30 -21 -18 -5 8 -10 11 -10 5 0 -5 5 -17 10
-25 7 -12 12 -7 25 24 9 21 14 40 12 43 -3 2 -10 -11 -16 -29z"/>
<path d="M3466 2722 c-3 -6 2 -8 13 -5 10 3 22 0 25 -6 5 -7 -4 -11 -23 -11
-34 0 -38 -7 -18 -34 8 -11 21 -16 33 -13 17 4 17 5 -2 6 -12 0 -24 8 -28 16
-4 11 2 15 25 15 24 0 30 4 27 18 -4 19 -42 29 -52 14z"/>
<path d="M3581 2720 c0 -8 4 -22 9 -30 12 -18 12 -2 0 25 -6 13 -9 15 -9 5z"/>
<path d="M3631 2723 c-1 -6 -4 -20 -7 -30 -5 -17 -5 -17 6 0 6 10 9 23 6 30
-3 9 -5 9 -5 0z"/>
<path d="M3672 2718 c-29 -29 -1 -75 38 -63 17 5 20 13 18 38 -3 35 -33 48
-56 25z m43 -28 c0 -16 -6 -26 -18 -28 -19 -4 -32 20 -23 44 9 25 41 13 41
-16z"/>
<path d="M3764 2690 c1 -31 4 -35 29 -36 25 -1 27 1 26 40 l-2 41 -6 -35 c-8
-48 -38 -54 -44 -8 l-4 33 1 -35z"/>
<path d="M3851 2685 c2 -33 3 -35 6 -10 2 17 11 35 20 42 13 10 13 12 -6 10
-18 -1 -21 -7 -20 -42z"/>
<path d="M3950 2710 c-15 -28 4 -60 33 -59 l22 2 -22 4 c-24 5 -35 25 -27 47
3 8 15 17 27 19 l22 4 -22 2 c-13 0 -27 -7 -33 -19z"/>
<path d="M4027 2724 c-14 -14 -7 -26 8 -14 20 17 45 5 45 -20 0 -26 -25 -36
-47 -19 -14 12 -16 12 -11 -1 7 -21 48 -19 62 3 8 12 8 22 0 35 -12 18 -45 28
-57 16z"/>
<path d="M4123 2690 c0 -25 2 -35 4 -22 2 12 2 32 0 45 -2 12 -4 2 -4 -23z"/>
<path d="M4152 2718 c9 -7 19 -26 21 -43 3 -21 4 -18 3 10 -1 31 -5 41 -21 43
-18 4 -19 3 -3 -10z"/>
<path d="M4267 2724 c-17 -17 -5 -34 24 -34 24 0 30 4 27 18 -3 17 -38 29 -51
16z m43 -14 c0 -5 -9 -10 -20 -10 -11 0 -20 5 -20 10 0 6 9 10 20 10 11 0 20
-4 20 -10z"/>
<path d="M4341 2690 l1 -45 8 35 c5 20 5 39 -1 45 -5 5 -9 -8 -8 -35z"/>
<path d="M4383 2719 c10 -6 17 -23 18 -42 1 -18 3 -24 6 -14 8 30 -6 67 -25
67 -16 -1 -16 -1 1 -11z"/>
<path d="M4526 2717 c3 -10 9 -15 12 -12 3 3 0 11 -7 18 -10 9 -11 8 -5 -6z"/>
<path d="M4617 2724 c-17 -17 -5 -34 24 -34 24 0 30 4 27 18 -3 17 -38 29 -51
16z m43 -14 c0 -5 -9 -10 -20 -10 -11 0 -20 5 -20 10 0 6 9 10 20 10 11 0 20
-4 20 -10z"/>
<path d="M4956 2717 c3 -10 9 -15 12 -12 3 3 0 11 -7 18 -10 9 -11 8 -5 -6z"/>
<path d="M5047 2724 c-14 -14 -7 -26 8 -14 20 17 45 5 45 -20 0 -26 -25 -36
-47 -19 -14 12 -16 12 -11 -1 7 -21 48 -19 62 3 8 12 8 22 0 35 -12 18 -45 28
-57 16z"/>
<path d="M5131 2708 c-2 -37 8 -58 27 -58 14 0 14 1 0 13 -9 6 -19 26 -21 42
-4 28 -4 29 -6 3z"/>
<path d="M5187 2698 c-3 -18 -1 -37 4 -42 5 -6 9 7 9 32 0 50 -6 54 -13 10z"/>
<path d="M5250 2725 c0 -5 5 -17 10 -25 5 -8 10 -10 10 -5 0 6 -5 17 -10 25
-5 8 -10 11 -10 5z"/>
<path d="M5299 2700 c-6 -16 -15 -27 -20 -24 -5 3 -9 1 -9 -5 0 -5 5 -13 10
-16 6 -3 10 -4 10 -2 0 3 7 21 15 41 8 20 13 36 10 36 -3 0 -11 -13 -16 -30z"/>
<path d="M5346 2722 c-3 -6 2 -8 13 -5 10 3 22 0 25 -6 5 -7 -4 -11 -23 -11
-34 0 -38 -7 -18 -34 8 -11 21 -16 33 -13 17 4 17 5 -2 6 -12 0 -24 8 -28 16
-4 11 2 15 25 15 24 0 30 4 27 18 -4 19 -42 29 -52 14z"/>
<path d="M1273 2670 c2 -8 14 -16 28 -17 19 -1 20 -1 4 4 -11 3 -24 10 -28 17
-6 7 -7 6 -4 -4z"/>
<path d="M2673 2670 c2 -8 14 -16 28 -17 19 -1 20 -1 4 4 -11 3 -24 10 -28 17
-6 7 -7 6 -4 -4z"/>
<path d="M4263 2670 c2 -8 14 -16 28 -17 19 -1 20 -1 4 4 -11 3 -24 10 -28 17
-6 7 -7 6 -4 -4z"/>
<path d="M4613 2670 c2 -8 14 -16 28 -17 19 -1 20 -1 4 4 -11 3 -24 10 -28 17
-6 7 -7 6 -4 -4z"/>
<path d="M3600 2652 c0 -10 -5 -23 -12 -30 -7 -7 -8 -12 -2 -12 6 0 16 11 22
25 15 32 15 35 2 35 -5 0 -10 -8 -10 -18z"/>
<path d="M4546 2639 c-12 -23 -12 -28 -2 -20 12 11 29 51 21 51 -2 0 -10 -14
-19 -31z"/>
<path d="M4976 2639 c-12 -23 -12 -28 -2 -20 12 11 29 51 21 51 -2 0 -10 -14
-19 -31z"/>
<path d="M883 2470 c0 -36 2 -50 4 -32 2 17 2 47 0 65 -2 17 -4 3 -4 -33z"/>
<path d="M1190 2507 c0 -18 -5 -23 -21 -23 -12 1 -26 -7 -33 -16 -15 -25 4
-53 38 -54 25 -1 26 1 26 57 0 33 -2 59 -5 59 -3 0 -5 -10 -5 -23z m-5 -57 c0
-16 -6 -26 -18 -28 -19 -4 -32 20 -23 44 9 25 41 13 41 -16z"/>
<path d="M1410 2506 c0 -18 -4 -23 -18 -19 -24 6 -44 -19 -40 -49 2 -18 10
-23 36 -24 l32 -1 0 59 c0 32 -2 58 -5 58 -3 0 -5 -11 -5 -24z m-5 -56 c0 -29
-32 -41 -41 -16 -9 24 4 48 23 44 12 -2 18 -12 18 -28z"/>
<path d="M1623 2470 c0 -36 2 -50 4 -32 2 17 2 47 0 65 -2 17 -4 3 -4 -33z"/>
<path d="M1973 2470 c0 -36 2 -50 4 -32 2 17 2 47 0 65 -2 17 -4 3 -4 -33z"/>
<path d="M2493 2470 c0 -36 2 -50 4 -32 2 17 2 47 0 65 -2 17 -4 3 -4 -33z"/>
<path d="M2580 2506 c0 -18 -4 -23 -18 -19 -24 6 -44 -19 -40 -49 2 -18 10
-23 36 -24 l32 -1 0 59 c0 32 -2 58 -5 58 -3 0 -5 -11 -5 -24z m-5 -56 c0 -29
-32 -41 -41 -16 -9 24 4 48 23 44 12 -2 18 -12 18 -28z"/>
<path d="M2802 2470 c0 -37 3 -57 7 -47 6 17 8 17 20 3 7 -9 18 -16 24 -16 5
0 3 8 -6 18 -21 23 -21 27 -1 46 8 9 11 16 6 16 -5 0 -16 -7 -23 -17 -13 -15
-15 -12 -20 23 -5 32 -6 27 -7 -26z"/>
<path d="M3690 2520 c0 -5 5 -10 10 -10 6 0 10 5 10 10 0 6 -4 10 -10 10 -5 0
-10 -4 -10 -10z"/>
<path d="M4172 2510 c-4 -11 -5 -39 -3 -63 l6 -42 3 35 c2 19 9 38 15 42 9 6
9 8 0 8 -7 0 -13 6 -13 14 0 8 6 17 13 19 9 4 9 6 -1 6 -7 1 -16 -8 -20 -19z"/>
<path d="M3430 2495 c0 -18 5 -25 20 -25 28 0 28 -47 0 -53 -17 -4 -16 -4 2
-3 32 2 39 55 9 63 -28 7 -27 31 2 36 19 4 18 4 -5 6 -24 1 -28 -3 -28 -24z"/>
<path d="M2128 2497 c-7 -22 7 -80 20 -83 7 -1 8 0 2 3 -12 6 -13 60 -1 65 5
2 3 8 -4 15 -10 9 -14 9 -17 0z"/>
<path d="M2662 2493 c-8 -8 -9 -13 -2 -13 5 0 10 -16 10 -35 0 -27 4 -35 18
-34 10 0 12 3 5 6 -15 5 -18 60 -4 65 5 2 4 8 -3 14 -8 8 -15 7 -24 -3z"/>
<path d="M3232 2493 c-8 -8 -9 -13 -2 -13 5 0 10 -16 10 -35 0 -27 4 -35 18
-34 10 0 12 3 5 6 -15 5 -18 60 -4 65 5 2 4 8 -3 14 -8 8 -15 7 -24 -3z"/>
<path d="M3912 2493 c-8 -8 -9 -13 -2 -13 5 0 10 -16 10 -35 0 -27 4 -35 18
-34 10 0 12 3 5 6 -15 5 -18 60 -4 65 5 2 4 8 -3 14 -8 8 -15 7 -24 -3z"/>
<path d="M5028 2497 c-7 -22 7 -80 20 -83 7 -1 8 0 2 3 -12 6 -13 60 -1 65 5
2 3 8 -4 15 -10 9 -14 9 -17 0z"/>
<path d="M5252 2493 c-8 -8 -9 -13 -2 -13 5 0 10 -16 10 -35 0 -27 4 -35 18
-34 10 0 12 3 5 6 -15 5 -18 60 -4 65 5 2 4 8 -3 14 -8 8 -15 7 -24 -3z"/>
<path d="M5349 2498 c-4 -39 9 -88 23 -88 9 0 9 3 0 12 -14 14 -16 55 -3 60 5
2 3 9 -5 16 -11 10 -14 10 -15 0z"/>
<path d="M818 2483 c30 -6 28 -19 -4 -27 -35 -9 -29 -41 9 -42 26 -1 28 1 25
35 -3 30 -7 36 -28 38 -22 1 -22 1 -2 -4z m22 -43 c0 -12 -28 -25 -36 -17 -9
9 6 27 22 27 8 0 14 -5 14 -10z"/>
<path d="M923 2450 c0 -25 2 -35 4 -22 2 12 2 32 0 45 -2 12 -4 2 -4 -23z"/>
<path d="M977 2484 c-17 -17 -5 -34 24 -34 24 0 30 4 27 18 -3 17 -38 29 -51
16z m43 -14 c0 -5 -9 -10 -20 -10 -11 0 -20 5 -20 10 0 6 9 10 20 10 11 0 20
-4 20 -10z"/>
<path d="M1078 2483 c30 -6 28 -19 -4 -27 -35 -9 -29 -41 9 -42 26 -1 28 1 25
35 -3 30 -7 36 -28 38 -22 1 -22 1 -2 -4z m22 -43 c0 -12 -28 -25 -36 -17 -9
9 6 27 22 27 8 0 14 -5 14 -10z"/>
<path d="M1220 2485 c0 -5 5 -17 10 -25 5 -8 10 -10 10 -5 0 6 -5 17 -10 25
-5 8 -10 11 -10 5z"/>
<path d="M1276 2475 c-9 -26 -7 -32 5 -12 6 10 9 21 6 23 -2 3 -7 -2 -11 -11z"/>
<path d="M1452 2478 c-26 -26 -6 -69 33 -67 17 1 17 2 -4 8 -37 10 -38 31 -2
31 17 0 31 4 31 8 0 12 -22 32 -35 32 -6 0 -16 -5 -23 -12z m43 -8 c4 -6 -5
-10 -20 -10 -15 0 -24 4 -20 10 3 6 12 10 20 10 8 0 17 -4 20 -10z"/>
<path d="M1531 2426 c1 -34 4 -49 6 -35 3 20 9 26 22 22 23 -6 43 20 39 49 -2
18 -10 23 -35 24 l-33 1 1 -61z m54 24 c0 -29 -32 -41 -41 -16 -9 24 4 48 23
44 12 -2 18 -12 18 -28z"/>
<path d="M1672 2478 c-29 -29 -1 -75 38 -63 17 5 20 13 18 38 -3 35 -33 48
-56 25z m43 -28 c0 -29 -32 -41 -41 -16 -9 24 4 48 23 44 12 -2 18 -12 18 -28z"/>
<path d="M1751 2480 c0 -8 4 -22 9 -30 12 -18 12 -2 0 25 -6 13 -9 15 -9 5z"/>
<path d="M1801 2483 c-1 -6 -4 -20 -7 -30 -5 -17 -5 -17 6 0 6 10 9 23 6 30
-3 9 -5 9 -5 0z"/>
<path d="M1841 2476 c-21 -25 -10 -61 19 -63 25 -3 25 -3 3 7 -31 13 -29 30 3
30 19 0 25 5 22 17 -4 23 -31 28 -47 9z m39 -6 c0 -5 -9 -10 -21 -10 -11 0
-17 5 -14 10 3 6 13 10 21 10 8 0 14 -4 14 -10z"/>
<path d="M1918 2465 c-13 -28 3 -56 31 -54 14 1 14 2 -1 6 -9 2 -19 11 -22 19
-8 20 3 42 22 47 15 4 15 5 -1 6 -10 0 -22 -10 -29 -24z"/>
<path d="M2093 2450 c0 -25 2 -35 4 -22 2 12 2 32 0 45 -2 12 -4 2 -4 -23z"/>
<path d="M2230 2470 c-15 -28 4 -60 33 -59 l22 2 -22 4 c-24 5 -35 25 -27 47
3 8 15 17 27 19 l22 4 -22 2 c-13 0 -27 -7 -33 -19z"/>
<path d="M2307 2484 c-14 -14 -7 -26 8 -14 20 17 45 5 45 -20 0 -26 -25 -36
-47 -19 -14 12 -16 12 -11 -1 7 -21 48 -19 62 3 8 12 8 22 0 35 -12 18 -45 28
-57 16z"/>
<path d="M2391 2465 c-1 -41 10 -55 42 -53 25 2 27 6 26 43 l-2 40 -6 -35 c-4
-26 -11 -35 -26 -35 -15 0 -22 9 -26 35 -6 34 -6 34 -8 5z"/>
<path d="M2738 2483 c30 -6 28 -19 -4 -27 -35 -9 -29 -41 9 -42 26 -1 28 1 25
35 -3 30 -7 36 -28 38 -22 1 -22 1 -2 -4z m22 -43 c0 -12 -28 -25 -36 -17 -9
9 6 27 22 27 8 0 14 -5 14 -10z"/>
<path d="M2886 2482 c-3 -6 2 -8 13 -5 10 3 22 0 25 -6 5 -7 -4 -11 -23 -11
-34 0 -38 -7 -18 -34 8 -11 21 -16 33 -13 17 4 17 5 -2 6 -12 0 -24 8 -28 16
-4 11 2 15 25 15 24 0 30 4 27 18 -4 19 -42 29 -52 14z"/>
<path d="M3001 2465 c-1 -41 10 -55 42 -53 25 2 27 6 26 43 l-2 40 -6 -35 c-4
-26 -11 -35 -26 -35 -15 0 -22 9 -26 35 -6 34 -6 34 -8 5z"/>
<path d="M3102 2425 l1 -60 6 55 c4 40 11 56 22 58 33 6 34 -53 1 -61 -15 -4
-15 -5 0 -6 10 0 22 8 28 19 16 29 -4 60 -35 58 -24 -2 -25 -5 -23 -63z"/>
<path d="M3290 2471 c-25 -47 36 -83 64 -38 8 12 8 22 0 35 -16 25 -51 27 -64
3z m55 -21 c0 -18 -6 -26 -21 -28 -23 -3 -37 18 -27 44 10 25 48 13 48 -16z"/>
<path d="M3563 2450 c0 -25 2 -35 4 -22 2 12 2 32 0 45 -2 12 -4 2 -4 -23z"/>
<path d="M3588 2483 c6 -3 12 -21 13 -41 1 -38 3 -36 13 11 9 39 34 34 39 -8
l4 -35 -1 37 c-1 37 -2 38 -41 39 -22 1 -34 -1 -27 -3z"/>
<path d="M3693 2450 c0 -25 2 -35 4 -22 2 12 2 32 0 45 -2 12 -4 2 -4 -23z"/>
<path d="M3731 2446 l2 -41 6 35 c8 48 38 54 44 8 l4 -33 -1 35 c-1 31 -4 35
-28 36 -26 1 -28 -1 -27 -40z"/>
<path d="M3821 2468 c-2 -37 8 -58 27 -58 14 0 14 1 0 13 -9 6 -19 26 -21 42
-4 28 -4 29 -6 3z"/>
<path d="M3877 2458 c-3 -18 -1 -37 4 -42 5 -6 9 7 9 32 0 50 -6 54 -13 10z"/>
<path d="M3976 2482 c-3 -6 2 -8 13 -5 10 3 22 0 25 -6 5 -7 -4 -11 -23 -11
-34 0 -38 -7 -18 -34 8 -11 21 -16 33 -13 17 4 17 5 -2 6 -12 0 -24 8 -28 16
-4 11 2 15 25 15 24 0 30 4 27 18 -4 19 -42 29 -52 14z"/>
<path d="M4053 2474 c-4 -10 0 -20 10 -26 22 -12 22 -25 0 -31 -17 -4 -17 -5
0 -6 24 -1 34 29 14 41 -22 12 -22 25 1 31 16 4 16 5 -1 6 -10 0 -20 -6 -24
-15z"/>
<path d="M4222 2478 c-29 -29 -1 -75 38 -63 17 5 20 13 18 38 -3 35 -33 48
-56 25z m43 -28 c0 -29 -32 -41 -41 -16 -9 24 4 48 23 44 12 -2 18 -12 18 -28z"/>
<path d="M4313 2450 c0 -25 2 -35 4 -22 2 12 2 32 0 45 -2 12 -4 2 -4 -23z"/>
<path d="M4401 2480 c0 -8 4 -22 9 -30 12 -18 12 -2 0 25 -6 13 -9 15 -9 5z"/>
<path d="M4451 2483 c-1 -6 -4 -20 -7 -30 -5 -17 -5 -17 6 0 6 10 9 23 6 30
-3 9 -5 9 -5 0z"/>
<path d="M4492 2478 c-29 -29 -1 -75 38 -63 17 5 20 13 18 38 -3 35 -33 48
-56 25z m43 -28 c0 -29 -32 -41 -41 -16 -9 24 4 48 23 44 12 -2 18 -12 18 -28z"/>
<path d="M4571 2465 c-1 -41 10 -55 42 -53 25 2 27 6 26 43 l-2 40 -6 -35 c-4
-26 -11 -35 -26 -35 -15 0 -22 9 -26 35 -6 34 -6 34 -8 5z"/>
<path d="M4671 2445 c2 -33 3 -35 6 -10 2 17 11 35 20 42 13 10 13 12 -6 10
-18 -1 -21 -7 -20 -42z"/>
<path d="M4772 2478 c-24 -24 -6 -69 28 -67 9 0 6 4 -8 10 -32 12 -26 51 8 60
21 6 22 7 5 8 -12 1 -26 -4 -33 -11z"/>
<path d="M4847 2484 c-14 -14 -7 -26 8 -14 20 17 45 5 45 -20 0 -26 -25 -36
-47 -19 -14 12 -16 12 -11 -1 7 -21 48 -19 62 3 8 12 8 22 0 35 -12 18 -45 28
-57 16z"/>
<path d="M4943 2450 c0 -25 2 -35 4 -22 2 12 2 32 0 45 -2 12 -4 2 -4 -23z"/>
<path d="M4972 2478 c9 -7 19 -26 21 -43 3 -21 4 -18 3 10 -1 31 -5 41 -21 43
-18 4 -19 3 -3 -10z"/>
<path d="M5086 2482 c-3 -6 2 -8 13 -5 10 3 22 0 25 -6 5 -7 -4 -11 -23 -11
-34 0 -38 -7 -18 -34 8 -11 21 -16 33 -13 17 4 17 5 -2 6 -12 0 -24 8 -28 16
-4 11 2 15 25 15 24 0 30 4 27 18 -4 19 -42 29 -52 14z"/>
<path d="M5161 2450 l1 -45 8 35 c5 20 5 39 -1 45 -5 5 -9 -8 -8 -35z"/>
<path d="M5203 2479 c10 -6 17 -23 18 -42 1 -18 3 -24 6 -14 8 30 -6 67 -25
67 -16 -1 -16 -1 1 -11z"/>
<path d="M5412 2478 c-16 -16 -15 -43 3 -58 18 -15 47 -10 52 10 4 12 3 12 -5
2 -15 -23 -47 -10 -47 18 0 28 32 41 47 18 8 -10 9 -10 5 2 -5 19 -39 24 -55
8z"/>
<path d="M973 2430 c2 -8 14 -16 28 -17 19 -1 20 -1 4 4 -11 3 -24 10 -28 17
-6 7 -7 6 -4 -4z"/>
<path d="M1245 2424 c3 -14 -1 -28 -10 -38 -9 -9 -12 -16 -6 -16 13 0 45 59
37 68 -3 3 -6 -1 -6 -9 0 -12 -2 -11 -11 1 -8 12 -9 11 -4 -6z"/>
<path d="M1770 2412 c0 -10 -5 -23 -12 -30 -7 -7 -8 -12 -2 -12 6 0 16 11 22
25 15 32 15 35 2 35 -5 0 -10 -8 -10 -18z"/>
<path d="M4420 2412 c0 -10 -5 -23 -12 -30 -7 -7 -8 -12 -2 -12 6 0 16 11 22
25 15 32 15 35 2 35 -5 0 -10 -8 -10 -18z"/>
<path d="M862 2230 c0 -52 2 -58 8 -32 4 17 4 47 0 65 -6 25 -8 19 -8 -33z"/>
<path d="M2111 2234 c-1 -60 0 -61 25 -60 51 2 59 71 8 71 -12 0 -21 9 -25 25
-4 16 -7 3 -8 -36z m54 -24 c0 -16 -6 -26 -18 -28 -19 -4 -32 20 -23 44 9 25
41 13 41 -16z"/>
<path d="M2362 2230 c0 -37 3 -57 7 -47 6 17 8 17 20 3 7 -9 18 -16 24 -16 5
0 3 8 -6 18 -21 23 -21 27 -1 46 8 9 11 16 6 16 -5 0 -16 -7 -23 -17 -13 -15
-15 -12 -20 23 -5 32 -6 27 -7 -26z"/>
<path d="M794 2238 c-4 -6 2 -19 14 -29 27 -21 27 -26 2 -32 -17 -4 -17 -4 2
-3 30 1 36 32 9 41 -28 8 -27 23 2 28 22 4 22 4 0 6 -12 0 -25 -4 -29 -11z"/>
<path d="M903 2239 c10 -6 17 -23 18 -42 1 -18 3 -24 6 -14 8 30 -6 67 -25 67
-16 -1 -16 -1 1 -11z"/>
<path d="M962 2238 c-29 -29 -1 -75 38 -63 17 5 20 13 18 38 -3 35 -33 48 -56
25z m43 -28 c0 -16 -6 -26 -18 -28 -19 -4 -32 20 -23 44 9 25 41 13 41 -16z"/>
<path d="M1087 2244 c-11 -11 -8 -36 3 -29 6 3 10 1 10 -6 0 -7 2 -10 5 -7 3
3 2 15 -3 27 -4 12 -11 19 -15 15z"/>
<path d="M1214 2210 c1 -31 4 -35 29 -36 25 -1 27 1 26 40 l-2 41 -6 -35 c-8
-48 -38 -54 -44 -8 l-4 33 1 -35z"/>
<path d="M1301 2186 c1 -39 4 -52 8 -36 4 16 13 25 25 25 51 0 43 69 -8 71
-25 1 -26 0 -25 -60z m54 24 c0 -29 -32 -41 -41 -16 -9 24 4 48 23 44 12 -2
18 -12 18 -28z"/>
<path d="M1473 2234 c-4 -10 0 -20 10 -26 22 -12 22 -25 0 -31 -17 -4 -17 -5
0 -6 24 -1 34 29 14 41 -22 12 -22 25 1 31 16 4 16 5 -1 6 -10 0 -20 -6 -24
-15z"/>
<path d="M1540 2231 c-25 -47 36 -83 64 -38 8 12 8 22 0 35 -16 25 -51 27 -64
3z m55 -21 c0 -18 -6 -26 -21 -28 -23 -3 -37 18 -27 44 10 25 48 13 48 -16z"/>
<path d="M1682 2238 c-24 -24 -6 -69 28 -67 9 0 6 4 -8 10 -32 12 -26 51 8 60
21 6 22 7 5 8 -12 1 -26 -4 -33 -11z"/>
<path d="M1757 2244 c-14 -14 -7 -26 8 -14 20 17 45 5 45 -20 0 -26 -25 -36
-47 -19 -14 12 -16 12 -11 -1 7 -21 48 -19 62 3 8 12 8 22 0 35 -12 18 -45 28
-57 16z"/>
<path d="M1841 2206 l2 -41 6 35 c4 22 12 36 24 38 14 3 17 -4 18 -35 l2 -38
6 35 c9 50 38 53 44 6 l4 -36 -1 37 -1 38 -52 1 -53 1 1 -41z"/>
<path d="M1987 2244 c-17 -17 -5 -34 24 -34 24 0 30 4 27 18 -3 17 -38 29 -51
16z m43 -14 c0 -5 -9 -10 -20 -10 -11 0 -20 5 -20 10 0 6 9 10 20 10 11 0 20
-4 20 -10z"/>
<path d="M2230 2239 l25 -11 -28 -10 c-37 -13 -33 -43 6 -44 26 -1 28 1 25 35
-3 30 -7 36 -28 38 l-25 3 25 -11z m20 -39 c0 -12 -28 -25 -36 -17 -9 9 6 27
22 27 8 0 14 -5 14 -10z"/>
<path d="M2292 2238 c-24 -24 -6 -69 28 -67 9 0 6 4 -8 10 -32 12 -26 51 8 60
21 6 22 7 5 8 -12 1 -26 -4 -33 -11z"/>
<path d="M2483 2234 c-4 -10 0 -20 10 -26 22 -12 22 -25 0 -31 -17 -4 -17 -5
0 -6 24 -1 34 29 14 41 -22 12 -22 25 1 31 16 4 16 5 -1 6 -10 0 -20 -6 -24
-15z"/>
<path d="M2557 2244 c-14 -14 -7 -26 8 -14 20 17 45 5 45 -20 0 -26 -25 -36
-47 -19 -14 12 -16 12 -11 -1 7 -21 48 -19 62 3 8 12 8 22 0 35 -12 18 -45 28
-57 16z"/>
<path d="M2652 2238 c-29 -29 -1 -75 38 -63 17 5 20 13 18 38 -3 35 -33 48
-56 25z m43 -28 c0 -16 -6 -26 -18 -28 -19 -4 -32 20 -23 44 9 25 41 13 41
-16z"/>
<path d="M2741 2206 l2 -41 6 35 c8 48 38 54 44 8 l4 -33 -1 35 c-1 31 -4 35
-28 36 -26 1 -28 -1 -27 -40z"/>
<path d="M1123 2209 c-7 -18 -11 -35 -8 -37 6 -6 27 48 23 60 -2 5 -9 -6 -15
-23z"/>
<path d="M1051 2213 c-2 -20 11 -43 20 -37 5 3 9 10 9 15 0 6 -4 8 -9 4 -5 -3
-12 3 -14 12 -3 10 -5 13 -6 6z"/>
<path d="M1983 2190 c2 -8 14 -16 28 -17 19 -1 20 -1 4 4 -11 3 -24 10 -28 17
-6 7 -7 6 -4 -4z"/>
<path d="M780 1270 l0 -250 250 0 250 0 0 250 0 250 -250 0 -250 0 0 -250z
m180 13 l30 -47 0 47 c0 26 5 47 10 47 6 0 10 -28 10 -65 0 -81 -14 -84 -57
-12 l-32 52 -1 -52 c0 -29 -4 -53 -10 -53 -6 0 -10 28 -10 65 0 81 17 86 60
18z m150 37 c0 -5 -11 -10 -25 -10 -16 0 -25 -6 -25 -15 0 -8 9 -15 20 -15 11
0 20 -4 20 -10 0 -5 -9 -10 -20 -10 -13 0 -20 -7 -20 -20 0 -15 7 -20 25 -20
14 0 25 -4 25 -10 0 -5 -16 -10 -35 -10 l-35 0 0 65 0 65 35 0 c19 0 35 -4 35
-10z m100 0 c0 -5 -7 -10 -15 -10 -12 0 -15 -13 -15 -55 0 -42 -3 -55 -15 -55
-12 0 -15 13 -15 55 0 42 -3 55 -15 55 -8 0 -15 5 -15 10 0 6 20 10 45 10 25
0 45 -4 45 -10z m-330 -111 c0 -5 -4 -9 -10 -9 -5 0 -10 7 -10 16 0 8 5 12 10
9 6 -3 10 -10 10 -16z"/>
<path d="M1530 1340 c0 -5 5 -10 10 -10 6 0 10 5 10 10 0 6 -4 10 -10 10 -5 0
-10 -4 -10 -10z"/>
<path d="M1570 1290 c0 -33 4 -60 10 -60 6 0 10 27 10 60 0 33 -4 60 -10 60
-6 0 -10 -27 -10 -60z"/>
<path d="M1840 1340 c0 -5 5 -10 10 -10 6 0 10 5 10 10 0 6 -4 10 -10 10 -5 0
-10 -4 -10 -10z"/>
<path d="M1940 1290 c0 -63 16 -84 22 -27 4 44 31 43 40 -3 l6 -35 -1 40 c-2
35 -5 40 -24 39 -18 0 -23 5 -23 23 0 13 -4 23 -10 23 -6 0 -10 -27 -10 -60z"/>
<path d="M1340 1284 l0 -55 33 3 c24 2 33 8 35 26 2 12 -2 22 -9 22 -9 0 -8 4
1 15 17 20 -3 45 -36 45 -22 0 -24 -4 -24 -56z m48 23 c2 -10 -3 -17 -12 -17
-10 0 -16 9 -16 21 0 24 23 21 28 -4z m2 -37 c13 -9 13 -11 0 -20 -22 -15 -30
-12 -30 10 0 22 8 25 30 10z"/>
<path d="M2120 1285 c0 -64 17 -75 22 -13 l3 42 28 -42 c15 -23 32 -42 37 -42
6 0 10 25 10 55 0 30 -4 55 -10 55 -5 0 -10 -19 -10 -42 l0 -43 -28 42 c-38
59 -52 56 -52 -12z"/>
<path d="M2250 1285 l0 -55 33 1 c29 1 29 2 8 8 -33 9 -38 29 -9 40 l23 10
-23 0 c-32 1 -25 33 8 42 23 6 22 7 -7 8 l-33 1 0 -55z"/>
<path d="M2338 1330 c18 -8 22 -18 24 -57 l1 -48 4 45 c2 26 11 50 20 58 14
10 10 12 -28 11 -36 0 -40 -2 -21 -9z"/>
<path d="M1623 1319 c-5 -5 -7 -26 -4 -47 5 -27 12 -37 26 -39 11 -2 14 0 8 3
-15 6 -18 61 -4 66 5 2 3 8 -4 15 -8 7 -16 8 -22 2z"/>
<path d="M1893 1319 c-5 -5 -7 -26 -4 -47 5 -27 12 -37 26 -39 11 -2 14 0 8 3
-15 6 -18 61 -4 66 5 2 3 8 -4 15 -8 7 -16 8 -22 2z"/>
<path d="M1443 1275 c2 -36 5 -40 30 -41 25 -1 27 1 26 40 l-2 41 -6 -35 c-4
-22 -12 -35 -21 -35 -9 0 -18 13 -22 35 l-6 35 1 -40z"/>
<path d="M1530 1270 c0 -22 5 -40 10 -40 6 0 10 18 10 40 0 22 -4 40 -10 40
-5 0 -10 -18 -10 -40z"/>
<path d="M1714 1293 c15 -55 18 -63 26 -63 5 0 13 12 18 28 l10 27 7 -27 c4
-16 11 -28 15 -28 10 0 34 69 27 77 -3 3 -10 -10 -15 -28 l-10 -34 -7 33 c-9
38 -22 42 -31 7 -7 -28 -24 -24 -24 6 0 10 -5 19 -11 19 -6 0 -8 -8 -5 -17z"/>
<path d="M1840 1270 c0 -22 5 -40 10 -40 6 0 10 18 10 40 0 22 -4 40 -10 40
-5 0 -10 -18 -10 -40z"/>
<path d="M2080 1240 c0 -5 5 -10 10 -10 6 0 10 5 10 10 0 6 -4 10 -10 10 -5 0
-10 -4 -10 -10z"/>
<path d="M1313 340 c0 -30 2 -43 4 -27 2 15 2 39 0 55 -2 15 -4 2 -4 -28z"/>
<path d="M1770 372 c0 -13 -7 -18 -22 -18 -19 1 -23 -4 -23 -29 0 -26 4 -30
28 -31 26 -1 27 1 27 47 0 27 -2 49 -5 49 -3 0 -5 -8 -5 -18z m-5 -47 c0 -11
-8 -21 -17 -23 -14 -3 -18 3 -18 23 0 20 4 26 18 23 9 -2 17 -12 17 -23z"/>
<path d="M4452 343 c-2 -46 0 -53 17 -53 11 0 22 4 25 9 4 5 -3 7 -13 4 -17
-4 -20 1 -24 43 l-3 49 -2 -52z"/>
<path d="M793 335 c0 -27 2 -40 4 -27 3 15 11 22 28 22 17 0 25 -7 28 -22 2
-13 4 0 4 27 0 28 -2 40 -4 28 -3 -16 -11 -23 -28 -23 -17 0 -25 7 -28 23 -2
12 -4 0 -4 -28z"/>
<path d="M1188 370 c-5 -17 3 -80 11 -80 7 0 6 79 -2 86 -3 3 -7 0 -9 -6z"/>
<path d="M1969 369 c-2 -27 3 -64 9 -71 4 -4 6 11 5 33 -1 39 -12 67 -14 38z"/>
<path d="M2023 373 c19 -5 22 -18 7 -28 -5 -3 -10 -11 -10 -18 0 -6 7 -1 16
11 17 25 11 43 -14 41 -15 -1 -15 -2 1 -6z"/>
<path d="M3433 363 c-4 -11 1 -22 15 -31 28 -18 28 -29 0 -35 -20 -5 -20 -5 2
-4 31 2 39 33 11 42 -26 8 -27 32 -3 38 16 4 16 5 -1 6 -10 0 -21 -7 -24 -16z"/>
<path d="M3498 370 c-5 -17 3 -80 11 -80 7 0 6 79 -2 86 -3 3 -7 0 -9 -6z"/>
<path d="M3650 370 c0 -5 -6 -10 -14 -10 -8 0 -17 -4 -20 -9 -4 -5 3 -7 13 -4
15 4 20 -1 23 -23 2 -15 9 -29 16 -30 7 -1 8 0 2 3 -12 6 -13 50 -1 55 5 2 3
9 -5 16 -8 7 -14 8 -14 2z"/>
<path d="M4648 370 c-5 -17 3 -80 11 -80 7 0 6 79 -2 86 -3 3 -7 0 -9 -6z"/>
<path d="M4760 376 c0 -2 9 -6 20 -9 11 -3 18 -1 14 4 -5 9 -34 13 -34 5z"/>
<path d="M903 354 c23 -7 22 -20 -4 -27 -27 -7 -20 -31 10 -35 20 -3 22 0 19
30 -2 24 -8 33 -23 35 -16 1 -16 1 -2 -3z m17 -44 c0 -5 -7 -10 -15 -10 -8 0
-15 5 -15 10 0 6 7 10 15 10 8 0 15 -4 15 -10z"/>
<path d="M947 339 c4 -13 8 -18 11 -10 2 7 -1 18 -6 23 -8 8 -9 4 -5 -13z"/>
<path d="M1014 346 c-11 -28 0 -51 26 -53 22 -1 22 -1 3 4 -29 6 -30 23 -2 23
14 0 19 5 17 17 -4 23 -36 29 -44 9z m36 -6 c0 -5 -7 -10 -15 -10 -8 0 -15 5
-15 10 0 6 7 10 15 10 8 0 15 -4 15 -10z"/>
<path d="M1081 321 c1 -27 3 -30 6 -11 7 35 21 48 34 30 9 -13 10 -13 6 0 -2
8 -13 16 -25 16 -19 1 -22 -4 -21 -35z"/>
<path d="M1270 345 c-15 -18 -3 -55 18 -55 16 1 15 2 0 11 -10 5 -18 16 -18
24 0 8 8 19 18 24 9 6 12 11 6 11 -6 0 -17 -7 -24 -15z"/>
<path d="M1347 354 c-16 -16 -6 -34 19 -34 19 0 25 5 22 17 -3 19 -29 29 -41
17z m33 -14 c0 -5 -7 -10 -15 -10 -8 0 -15 5 -15 10 0 6 7 10 15 10 8 0 15 -4
15 -10z"/>
<path d="M1413 310 c0 -30 1 -47 4 -37 2 9 11 17 18 17 8 0 16 4 19 9 4 5 -3
7 -13 4 -16 -4 -20 1 -24 29 -2 20 -4 12 -4 -22z"/>
<path d="M1430 356 c0 -2 7 -7 16 -10 8 -3 12 -2 9 4 -6 10 -25 14 -25 6z"/>
<path d="M1520 345 c-22 -27 17 -72 41 -48 6 6 2 9 -13 9 -17 -1 -23 5 -23 19
0 14 6 20 22 19 12 0 20 3 17 8 -8 13 -30 9 -44 -7z"/>
<path d="M1660 345 c-17 -21 -3 -55 23 -54 21 0 21 1 -3 11 l-25 11 30 7 30 8
-28 1 c-17 1 -26 5 -22 12 4 6 14 8 22 5 8 -3 11 -1 8 4 -9 14 -21 12 -35 -5z"/>
<path d="M1907 354 c-16 -16 -6 -34 19 -34 19 0 25 5 22 17 -3 19 -29 29 -41
17z m33 -14 c0 -5 -7 -10 -15 -10 -8 0 -15 5 -15 10 0 6 7 10 15 10 8 0 15 -4
15 -10z"/>
<path d="M3550 356 c0 -2 7 -6 15 -10 8 -3 15 -1 15 4 0 6 -7 10 -15 10 -8 0
-15 -2 -15 -4z"/>
<path d="M3733 325 c0 -22 2 -30 4 -17 2 12 2 30 0 40 -3 9 -5 -1 -4 -23z"/>
<path d="M3757 353 c6 -4 13 -22 16 -38 4 -27 5 -27 3 4 0 21 -7 36 -16 38
-10 3 -11 2 -3 -4z"/>
<path d="M3805 349 c-4 -6 -4 -13 -1 -16 3 -4 6 -1 6 6 0 8 8 11 20 8 11 -3
18 -1 14 4 -7 12 -31 11 -39 -2z"/>
<path d="M3933 354 c23 -7 22 -20 -3 -27 -25 -6 -27 -37 -2 -36 10 0 12 3 5 6
-18 7 -16 23 1 23 8 0 17 -8 20 -17 2 -10 4 -2 3 17 -2 27 -7 35 -22 37 -16 1
-16 1 -2 -3z"/>
<path d="M4026 351 c-3 -5 2 -7 13 -4 16 4 20 -1 24 -29 l5 -33 -2 35 c-1 34
-26 54 -40 31z"/>
<path d="M4089 344 c-16 -19 -1 -48 27 -51 13 -2 11 1 -6 9 l-25 12 28 4 c15
2 27 7 27 11 0 5 -11 6 -25 3 -31 -6 -33 6 -2 18 15 6 17 9 6 9 -9 1 -22 -6
-30 -15z"/>
<path d="M4151 344 c0 -11 3 -14 6 -6 3 7 2 16 -1 19 -3 4 -6 -2 -5 -13z"/>
<path d="M4186 343 c-6 -14 -5 -15 5 -6 7 7 10 15 7 18 -3 3 -9 -2 -12 -12z"/>
<path d="M4281 344 c0 -11 3 -14 6 -6 3 7 2 16 -1 19 -3 4 -6 -2 -5 -13z"/>
<path d="M4316 343 c-6 -14 -5 -15 5 -6 7 7 10 15 7 18 -3 3 -9 -2 -12 -12z"/>
<path d="M4387 354 c-16 -16 -6 -34 19 -34 19 0 25 5 22 17 -3 19 -29 29 -41
17z m33 -14 c0 -5 -7 -10 -15 -10 -8 0 -15 5 -15 10 0 6 7 10 15 10 8 0 15 -4
15 -10z"/>
<path d="M4470 356 c0 -2 7 -7 16 -10 8 -3 12 -2 9 4 -6 10 -25 14 -25 6z"/>
<path d="M4564 348 c-4 -6 0 -16 9 -23 22 -16 21 -22 0 -28 -16 -4 -16 -5 -1
-6 26 -2 33 20 12 36 -16 12 -17 15 -4 23 9 6 10 10 3 10 -6 0 -15 -5 -19 -12z"/>
<path d="M4697 354 c-16 -16 -6 -34 19 -34 19 0 25 5 22 17 -3 19 -29 29 -41
17z m33 -14 c0 -5 -7 -10 -15 -10 -8 0 -15 5 -15 10 0 6 7 10 15 10 8 0 15 -4
15 -10z"/>
<path d="M4221 334 c0 -11 3 -14 6 -6 3 7 2 16 -1 19 -3 4 -6 -2 -5 -13z"/>
<path d="M4351 334 c0 -11 3 -14 6 -6 3 7 2 16 -1 19 -3 4 -6 -2 -5 -13z"/>
<path d="M1620 321 c0 -7 -4 -9 -10 -6 -5 3 -10 2 -10 -4 0 -5 4 -12 9 -15 10
-6 25 24 16 32 -3 3 -5 0 -5 -7z"/>
<path d="M3546 321 c-4 -5 3 -7 14 -4 23 6 26 13 6 13 -8 0 -17 -4 -20 -9z"/>
<path d="M3800 312 c0 -18 29 -27 43 -13 9 9 8 11 -7 5 -11 -4 -21 -2 -27 7
-6 10 -9 11 -9 1z"/>
<path d="M4160 311 c0 -5 5 -13 10 -16 6 -3 10 -2 10 4 0 5 -4 13 -10 16 -5 3
-10 2 -10 -4z"/>
<path d="M4200 311 c0 -5 5 -13 10 -16 6 -3 10 -2 10 4 0 5 -4 13 -10 16 -5 3
-10 2 -10 -4z"/>
<path d="M4290 311 c0 -5 5 -13 10 -16 6 -3 10 -2 10 4 0 5 -4 13 -10 16 -5 3
-10 2 -10 -4z"/>
<path d="M4330 311 c0 -5 5 -13 10 -16 6 -3 10 -2 10 4 0 5 -4 13 -10 16 -5 3
-10 2 -10 -4z"/>
<path d="M960 300 c0 -5 5 -10 10 -10 6 0 10 5 10 10 0 6 -4 10 -10 10 -5 0
-10 -4 -10 -10z"/>
<path d="M1348 298 c6 -6 18 -8 28 -6 14 3 12 5 -9 10 -19 3 -25 2 -19 -4z"/>
<path d="M1908 298 c6 -6 18 -8 28 -6 14 3 12 5 -9 10 -19 3 -25 2 -19 -4z"/>
<path d="M3555 300 c-19 -8 -19 -9 3 -9 12 -1 22 4 22 9 0 6 -1 10 -2 9 -2 0
-12 -4 -23 -9z"/>
<path d="M4388 298 c6 -6 18 -8 28 -6 14 3 12 5 -9 10 -19 3 -25 2 -19 -4z"/>
<path d="M4698 298 c6 -6 18 -8 28 -6 14 3 12 5 -9 10 -19 3 -25 2 -19 -4z"/>
<path d="M3820 270 c-23 -7 -23 -8 -3 -9 12 -1 25 4 28 9 3 6 5 10 3 9 -2 -1
-14 -5 -28 -9z"/>
<path d="M1310 172 c0 -13 -7 -18 -22 -18 -19 1 -23 -4 -23 -29 0 -26 4 -30
28 -31 26 -1 27 1 27 47 0 27 -2 49 -5 49 -3 0 -5 -8 -5 -18z m-5 -47 c0 -11
-8 -21 -17 -23 -14 -3 -18 3 -18 23 0 20 4 26 18 23 9 -2 17 -12 17 -23z"/>
<path d="M1483 140 c0 -30 2 -43 4 -28 2 16 2 40 0 56 -2 15 -4 2 -4 -28z"/>
<path d="M3573 140 c0 -30 2 -43 4 -28 2 16 2 40 0 56 -2 15 -4 2 -4 -28z"/>
<path d="M3603 140 c0 -30 2 -43 4 -28 2 16 2 40 0 56 -2 15 -4 2 -4 -28z"/>
<path d="M4333 140 c0 -30 1 -47 4 -37 5 18 5 18 26 0 22 -18 22 -18 5 3 -17
19 -17 21 0 39 17 19 17 19 -5 1 -21 -18 -22 -18 -26 16 -2 20 -4 11 -4 -22z"/>
<path d="M791 149 c-1 -43 21 -69 47 -52 11 6 18 25 18 49 l2 39 -7 -40 c-5
-31 -10 -40 -26 -40 -16 0 -21 9 -26 40 l-6 40 -2 -36z"/>
<path d="M1038 167 c-7 -21 6 -70 20 -73 7 -1 8 0 2 3 -12 6 -13 50 -1 55 5 2
3 8 -4 15 -10 9 -14 9 -17 0z"/>
<path d="M1909 169 c-2 -27 3 -64 9 -71 4 -4 6 11 5 33 -1 39 -12 67 -14 38z"/>
<path d="M2189 169 c-2 -27 3 -64 9 -71 4 -4 6 11 5 33 -1 39 -12 67 -14 38z"/>
<path d="M3431 133 c1 -27 4 -38 6 -26 2 12 12 24 21 26 15 4 15 5 0 6 -26 2
-22 29 5 34 19 4 18 4 -5 6 -27 1 -28 -1 -27 -46z"/>
<path d="M4082 168 c-16 -16 -15 -53 1 -66 6 -5 28 -12 47 -16 19 -3 30 -3 23
0 -8 3 -10 16 -6 35 9 47 -34 78 -65 47z m53 -33 c0 -25 -4 -30 -25 -30 -16 0
-26 6 -28 18 -6 30 6 49 30 45 18 -2 23 -9 23 -33z"/>
<path d="M4608 170 c-2 -6 -13 -12 -26 -13 -19 -1 -22 -7 -21 -37 l1 -35 7 30
c8 38 41 48 41 11 0 -14 3 -27 8 -29 4 -3 6 13 5 35 -1 40 -8 58 -15 38z"/>
<path d="M884 148 c-4 -6 0 -16 9 -23 22 -16 21 -22 0 -28 -16 -4 -16 -5 -1
-6 24 -2 34 20 15 34 -22 16 -21 22 1 28 15 4 15 5 0 6 -9 0 -20 -4 -24 -11z"/>
<path d="M939 144 c-16 -19 -1 -48 27 -51 13 -2 11 1 -6 9 l-25 12 28 4 c15 2
27 7 27 11 0 5 -11 6 -25 3 -31 -6 -33 6 -2 18 15 6 17 9 6 9 -9 1 -22 -6 -30
-15z"/>
<path d="M1096 151 c-3 -5 2 -7 13 -4 16 4 20 -1 24 -29 l5 -33 -2 35 c-1 34
-26 54 -40 31z"/>
<path d="M1159 144 c-16 -19 -1 -48 27 -51 13 -2 11 1 -6 9 l-25 12 28 4 c15
2 27 7 27 11 0 5 -11 6 -25 3 -31 -6 -33 6 -2 18 15 6 17 9 6 9 -9 1 -22 -6
-30 -15z"/>
<path d="M1339 144 c-16 -19 -1 -48 27 -51 13 -2 11 1 -6 9 l-25 12 28 4 c15
2 27 7 27 11 0 5 -11 6 -25 3 -31 -6 -33 6 -2 18 15 6 17 9 6 9 -9 1 -22 -6
-30 -15z"/>
<path d="M1413 110 c0 -30 1 -47 4 -37 2 9 11 17 18 17 8 0 16 4 19 9 4 5 -3
7 -13 4 -16 -4 -20 1 -24 29 -2 20 -4 12 -4 -22z"/>
<path d="M1430 156 c0 -2 7 -7 16 -10 8 -3 12 -2 9 4 -6 10 -25 14 -25 6z"/>
<path d="M1520 145 c-10 -12 -11 -21 -3 -33 13 -21 45 -22 50 -2 4 12 3 13 -5
1 -12 -17 -42 -7 -42 14 0 21 30 31 42 14 8 -12 9 -11 5 1 -5 21 -31 24 -47 5z"/>
<path d="M1587 139 c4 -13 8 -18 11 -10 2 7 -1 18 -6 23 -8 8 -9 4 -5 -13z"/>
<path d="M1651 121 c1 -35 2 -35 8 -7 9 43 31 45 32 4 l1 -33 7 29 c9 42 29
44 34 4 l5 -33 -2 35 c-1 34 -2 35 -43 36 -43 0 -43 0 -42 -35z"/>
<path d="M1770 145 c-17 -21 -3 -55 23 -54 21 0 21 1 -3 11 l-25 11 30 7 30 8
-28 1 c-17 1 -26 5 -22 12 4 6 14 8 22 5 8 -3 11 -1 8 4 -9 14 -21 12 -35 -5z"/>
<path d="M1831 120 l1 -35 7 30 c4 20 12 30 24 29 9 -1 17 2 17 7 0 5 -11 8
-25 7 -22 -2 -25 -7 -24 -38z"/>
<path d="M1996 151 c-4 -5 3 -7 14 -4 23 6 26 13 6 13 -8 0 -17 -4 -20 -9z"/>
<path d="M2049 144 c-16 -19 -1 -48 27 -51 13 -2 11 1 -6 9 l-25 12 28 4 c15
2 27 7 27 11 0 5 -11 6 -25 3 -31 -6 -33 6 -2 18 15 6 17 9 6 9 -9 1 -22 -6
-30 -15z"/>
<path d="M2126 151 c-3 -5 2 -7 13 -4 16 4 20 -1 24 -29 l5 -33 -2 35 c-1 34
-26 54 -40 31z"/>
<path d="M2234 146 c-11 -28 0 -51 26 -53 22 -1 22 -1 3 4 -29 6 -30 23 -2 23
14 0 19 5 17 17 -4 23 -36 29 -44 9z m36 -6 c0 -5 -7 -10 -15 -10 -8 0 -15 5
-15 10 0 6 7 10 15 10 8 0 15 -4 15 -10z"/>
<path d="M2303 125 c0 -22 2 -30 4 -17 2 12 2 30 0 40 -3 9 -5 -1 -4 -23z"/>
<path d="M3500 145 c-10 -12 -11 -21 -3 -33 13 -21 45 -22 50 -2 4 12 3 13 -5
1 -12 -17 -42 -7 -42 14 0 21 30 31 42 14 8 -12 9 -11 5 1 -5 21 -31 24 -47 5z"/>
<path d="M3634 146 c-9 -23 0 -51 16 -52 9 0 10 1 3 3 -7 3 -13 15 -13 28 0
17 7 25 23 28 l22 4 -23 2 c-12 0 -25 -5 -28 -13z"/>
<path d="M3740 155 c0 -5 5 -17 10 -25 5 -8 10 -10 10 -5 0 6 -5 17 -10 25 -5
8 -10 11 -10 5z"/>
<path d="M3847 154 c-4 -4 -7 -12 -7 -18 0 -6 4 -5 9 3 11 17 41 7 41 -14 0
-21 -30 -31 -41 -14 -6 10 -9 11 -9 1 0 -21 30 -26 48 -8 13 13 14 20 6 34
-12 19 -36 27 -47 16z"/>
<path d="M3958 133 c-2 -20 -8 -28 -20 -27 -10 1 -18 -2 -18 -7 0 -5 11 -8 25
-7 21 2 25 7 25 35 0 40 -7 43 -12 6z"/>
<path d="M3993 125 c0 -22 2 -30 4 -17 2 12 2 30 0 40 -3 9 -5 -1 -4 -23z"/>
<path d="M4208 133 c-2 -20 -8 -28 -20 -27 -10 1 -18 -2 -18 -7 0 -5 11 -8 25
-7 21 2 25 7 25 35 0 40 -7 43 -12 6z"/>
<path d="M4243 125 c0 -22 2 -30 4 -17 2 12 2 30 0 40 -3 9 -5 -1 -4 -23z"/>
<path d="M4274 146 c-9 -23 0 -51 16 -52 9 0 10 1 3 3 -20 7 -16 51 5 56 16 4
16 5 -1 6 -10 0 -20 -5 -23 -13z"/>
<path d="M4396 151 c-4 -5 3 -7 14 -4 23 6 26 13 6 13 -8 0 -17 -4 -20 -9z"/>
<path d="M4448 153 c6 -2 18 -2 25 0 6 3 1 5 -13 5 -14 0 -19 -2 -12 -5z"/>
<path d="M4513 154 c23 -7 22 -20 -4 -27 -27 -7 -20 -31 10 -35 20 -3 22 0 19
30 -2 24 -8 33 -23 35 -16 1 -16 1 -2 -3z m17 -44 c0 -5 -7 -10 -15 -10 -8 0
-15 5 -15 10 0 6 7 10 15 10 8 0 15 -4 15 -10z"/>
<path d="M4689 144 c-14 -18 -3 -45 22 -51 8 -3 7 0 -3 7 -10 6 -18 17 -18 25
0 8 8 19 18 24 9 6 12 11 6 11 -6 0 -17 -7 -25 -16z"/>
<path d="M4732 118 c-2 -40 -5 -47 -24 -51 l-23 -4 23 -2 c27 -1 35 15 29 65
-3 38 -4 37 -5 -8z"/>
<path d="M4808 133 c-2 -20 -8 -28 -20 -27 -10 1 -18 -2 -18 -7 0 -5 11 -8 25
-7 21 2 25 7 25 35 0 40 -7 43 -12 6z"/>
<path d="M4843 125 c0 -22 2 -30 4 -17 2 12 2 30 0 40 -3 9 -5 -1 -4 -23z"/>
<path d="M4875 149 c-4 -6 -4 -13 -1 -16 3 -4 6 -1 6 6 0 8 8 11 20 8 11 -3
18 -1 14 4 -7 12 -31 11 -39 -2z"/>
<path d="M4950 145 c-17 -21 -3 -55 23 -54 21 0 21 1 -3 11 l-25 11 30 7 30 8
-28 1 c-17 1 -26 5 -22 12 4 6 14 8 22 5 8 -3 11 -1 8 4 -9 14 -21 12 -35 -5z"/>
<path d="M3681 124 c0 -11 3 -14 6 -6 3 7 2 16 -1 19 -3 4 -6 -2 -5 -13z"/>
<path d="M1980 124 c0 -17 27 -37 42 -31 8 4 7 6 -4 6 -9 1 -22 9 -27 19 -6 9
-11 12 -11 6z"/>
<path d="M3766 115 c-9 -26 -7 -32 5 -12 6 10 9 21 6 23 -2 3 -7 -2 -11 -11z"/>
<path d="M4400 126 c0 -2 7 -7 16 -10 8 -3 12 -2 9 4 -6 10 -25 14 -25 6z"/>
<path d="M4870 112 c0 -18 29 -27 43 -13 9 9 8 11 -7 5 -11 -4 -21 -2 -27 7
-6 10 -9 11 -9 1z"/>
<path d="M1605 100 c3 -5 8 -10 11 -10 2 0 4 5 4 10 0 6 -5 10 -11 10 -5 0 -7
-4 -4 -10z"/>
<path d="M4398 93 c6 -2 18 -2 25 0 6 3 1 5 -13 5 -14 0 -19 -2 -12 -5z"/>
<path d="M1590 70 c-9 -6 -10 -10 -3 -10 6 0 15 5 18 10 8 12 4 12 -15 0z"/>
</g>
</svg>
